# MagicaVoxel @ Ephtracy

# group
o 

# material
mtllib Fackel.mtl
usemtl palette

# normals
vn -1 0 0
vn 1 0 0
vn 0 0 1
vn 0 0 -1
vn 0 -1 0
vn 0 1 0

# texcoords
vt 0.880859 0.5
vt 0.970703 0.5
vt 0.978516 0.5

# verts
v -1.4 0 0.4
v -1.4 0 -0.4
v -1.4 0.4 0.4
v -1.4 0.4 -0.4
v -1.4 0.8 0.4
v -1.4 0.8 -0.4
v -1.4 1.2 0.4
v -1.4 1.2 -0.4
v -1 0.4 0.4
v -1 0.4 -0.4
v -1 0.8 0.8
v -1 0.8 0.4
v -1 0.8 -0.4
v -1 0.8 -0.8
v -1 1.2 0.8
v -1 1.2 0.4
v -1 1.2 -0.4
v -1 1.2 -0.8
v -0.6 1.2 0.4
v -0.6 1.2 -0.4
v -0.6 1.6 0.4
v -0.6 1.6 -0.4
v -0.2 0.8 0.4
v -0.2 0.8 -0.4
v -0.2 1.2 0.4
v -0.2 1.2 -0.4
v -0.2 1.6 0.4
v -0.2 1.6 -0.4
v -0.2 2 0.4
v -0.2 2 -0.4
v 0.2 2 0.4
v 0.2 2 -0.4
v 0.2 2.4 0.4
v 0.2 2.4 -0.4
v 0.4 2.4 0.4
v 0.4 2.4 -0.4
v 0.4 2.5 0.4
v 0.4 2.5 -0.4
v -1 0 0.4
v -1 0 -0.4
v -1 0.4 0.4
v -1 0.4 -0.4
v -1 0.8 0.4
v -1 0.8 -0.4
v -1 1.2 0.4
v -1 1.2 -0.4
v -0.6 0.4 0.4
v -0.6 0.4 -0.4
v -0.6 0.8 0.4
v -0.6 0.8 -0.4
v -0.2 0.8 0.8
v -0.2 0.8 0.4
v -0.2 0.8 -0.4
v -0.2 0.8 -0.8
v -0.2 1.2 0.8
v -0.2 1.2 0.4
v -0.2 1.2 -0.4
v -0.2 1.2 -0.8
v -0.2 1.6 0.4
v -0.2 1.6 -0.4
v 0.2 0.8 0.4
v 0.2 0.8 -0.4
v 0.2 1.2 0.4
v 0.2 1.2 -0.4
v 0.2 1.6 0.4
v 0.2 1.6 -0.4
v 0.2 2 0.4
v 0.2 2 -0.4
v 0.6 2 0.4
v 0.6 2 -0.4
v 0.6 2.2 0.4
v 0.6 2.2 -0.4
v 0.7 2.2 0.4
v 0.7 2.2 -0.4
v 0.7 2.5 0.4
v 0.7 2.5 -0.4
v -1 0.8 0.8
v -1 1.2 0.8
v -0.2 0.8 0.8
v -0.2 1.2 0.8
v -1.4 0 0.4
v -1.4 0.4 0.4
v -1.4 0.8 0.4
v -1.4 1.2 0.4
v -1 0 0.4
v -1 0.4 0.4
v -1 0.8 0.4
v -1 1.2 0.4
v -0.6 0.4 0.4
v -0.6 0.8 0.4
v -0.6 1.2 0.4
v -0.6 1.6 0.4
v -0.2 0.8 0.4
v -0.2 1.2 0.4
v -0.2 1.6 0.4
v -0.2 2 0.4
v 0.2 0.8 0.4
v 0.2 1.2 0.4
v 0.2 1.6 0.4
v 0.2 2 0.4
v 0.2 2.4 0.4
v 0.4 2.4 0.4
v 0.4 2.5 0.4
v 0.6 2 0.4
v 0.6 2.2 0.4
v 0.6 2.4 0.4
v 0.7 2.2 0.4
v 0.7 2.5 0.4
v -1 0.8 -0.4
v -1 1.2 -0.4
v -0.6 0.8 -0.4
v -0.6 1.2 -0.4
v -0.2 0.8 -0.4
v -0.2 1.2 -0.4
v -1 0.8 0.4
v -1 1.2 0.4
v -0.6 0.8 0.4
v -0.6 1.2 0.4
v -0.2 0.8 0.4
v -0.2 1.2 0.4
v -1.4 0 -0.4
v -1.4 0.4 -0.4
v -1.4 0.8 -0.4
v -1.4 1.2 -0.4
v -1 0 -0.4
v -1 0.4 -0.4
v -1 0.8 -0.4
v -1 1.2 -0.4
v -0.6 0.4 -0.4
v -0.6 0.8 -0.4
v -0.6 1.2 -0.4
v -0.6 1.6 -0.4
v -0.2 0.8 -0.4
v -0.2 1.2 -0.4
v -0.2 1.6 -0.4
v -0.2 2 -0.4
v 0.2 0.8 -0.4
v 0.2 1.2 -0.4
v 0.2 1.6 -0.4
v 0.2 2 -0.4
v 0.2 2.4 -0.4
v 0.4 2.4 -0.4
v 0.4 2.5 -0.4
v 0.6 2 -0.4
v 0.6 2.2 -0.4
v 0.6 2.4 -0.4
v 0.7 2.2 -0.4
v 0.7 2.5 -0.4
v -1 0.8 -0.8
v -1 1.2 -0.8
v -0.2 0.8 -0.8
v -0.2 1.2 -0.8
v -1.4 0 0.4
v -1 0 0.4
v -1.4 0 -0.4
v -1 0 -0.4
v -1 0.4 0.4
v -0.6 0.4 0.4
v -1 0.4 -0.4
v -0.6 0.4 -0.4
v -1 0.8 0.8
v -0.2 0.8 0.8
v -1.4 0.8 0.4
v -1 0.8 0.4
v -0.6 0.8 0.4
v -0.2 0.8 0.4
v 0.2 0.8 0.4
v -1.4 0.8 -0.4
v -1 0.8 -0.4
v -0.6 0.8 -0.4
v -0.2 0.8 -0.4
v 0.2 0.8 -0.4
v -1 0.8 -0.8
v -0.2 0.8 -0.8
v -0.6 1.2 0.4
v -0.2 1.2 0.4
v -0.6 1.2 -0.4
v -0.2 1.2 -0.4
v -0.2 1.6 0.4
v 0.2 1.6 0.4
v -0.2 1.6 -0.4
v 0.2 1.6 -0.4
v 0.2 2 0.4
v 0.6 2 0.4
v 0.2 2 -0.4
v 0.6 2 -0.4
v 0.6 2.2 0.4
v 0.7 2.2 0.4
v 0.6 2.2 -0.4
v 0.7 2.2 -0.4
v -1.4 0.4 0.4
v -1 0.4 0.4
v -1.4 0.4 -0.4
v -1 0.4 -0.4
v -1 0.8 0.4
v -0.6 0.8 0.4
v -1 0.8 -0.4
v -0.6 0.8 -0.4
v -1 1.2 0.8
v -0.2 1.2 0.8
v -1.4 1.2 0.4
v -1 1.2 0.4
v -0.6 1.2 0.4
v -0.2 1.2 0.4
v 0.2 1.2 0.4
v -1.4 1.2 -0.4
v -1 1.2 -0.4
v -0.6 1.2 -0.4
v -0.2 1.2 -0.4
v 0.2 1.2 -0.4
v -1 1.2 -0.8
v -0.2 1.2 -0.8
v -0.6 1.6 0.4
v -0.2 1.6 0.4
v -0.6 1.6 -0.4
v -0.2 1.6 -0.4
v -0.2 2 0.4
v 0.2 2 0.4
v -0.2 2 -0.4
v 0.2 2 -0.4
v 0.2 2.4 0.4
v 0.4 2.4 0.4
v 0.2 2.4 -0.4
v 0.4 2.4 -0.4
v 0.4 2.5 0.4
v 0.7 2.5 0.4
v 0.4 2.5 -0.4
v 0.7 2.5 -0.4

# faces
f 3/2/1 2/2/1 1/2/1
f 4/2/1 2/2/1 3/2/1
f 7/3/1 6/3/1 5/3/1
f 8/3/1 6/3/1 7/3/1
f 12/2/1 10/2/1 9/2/1
f 13/2/1 10/2/1 12/2/1
f 15/3/1 12/3/1 11/3/1
f 16/3/1 12/3/1 15/3/1
f 17/3/1 14/3/1 13/3/1
f 18/3/1 14/3/1 17/3/1
f 21/2/1 20/2/1 19/2/1
f 22/2/1 20/2/1 21/2/1
f 25/3/1 24/3/1 23/3/1
f 26/3/1 24/3/1 25/3/1
f 29/2/1 28/2/1 27/2/1
f 30/2/1 28/2/1 29/2/1
f 33/2/1 32/2/1 31/2/1
f 34/2/1 32/2/1 33/2/1
f 37/1/1 36/1/1 35/1/1
f 38/1/1 36/1/1 37/1/1
f 39/2/2 40/2/2 41/2/2
f 41/2/2 40/2/2 42/2/2
f 43/3/2 44/3/2 45/3/2
f 45/3/2 44/3/2 46/3/2
f 47/2/2 48/2/2 49/2/2
f 49/2/2 48/2/2 50/2/2
f 51/3/2 52/3/2 55/3/2
f 55/3/2 52/3/2 56/3/2
f 53/3/2 54/3/2 57/3/2
f 57/3/2 54/3/2 58/3/2
f 56/2/2 57/2/2 59/2/2
f 59/2/2 57/2/2 60/2/2
f 61/3/2 62/3/2 63/3/2
f 63/3/2 62/3/2 64/3/2
f 65/2/2 66/2/2 67/2/2
f 67/2/2 66/2/2 68/2/2
f 69/2/2 70/2/2 71/2/2
f 71/2/2 70/2/2 72/2/2
f 73/1/2 74/1/2 75/1/2
f 75/1/2 74/1/2 76/1/2
f 79/3/3 78/3/3 77/3/3
f 80/3/3 78/3/3 79/3/3
f 85/2/3 82/2/3 81/2/3
f 86/2/3 82/2/3 85/2/3
f 87/3/3 84/3/3 83/3/3
f 88/3/3 84/3/3 87/3/3
f 89/2/3 87/2/3 86/2/3
f 90/2/3 87/2/3 89/2/3
f 94/2/3 92/2/3 91/2/3
f 95/2/3 92/2/3 94/2/3
f 97/3/3 94/3/3 93/3/3
f 98/3/3 94/3/3 97/3/3
f 99/2/3 96/2/3 95/2/3
f 100/2/3 96/2/3 99/2/3
f 102/2/3 101/2/3 100/2/3
f 104/2/3 102/2/3 100/2/3
f 105/2/3 102/2/3 104/2/3
f 106/1/3 103/1/3 102/1/3
f 106/2/3 102/2/3 105/2/3
f 107/1/3 106/1/3 105/1/3
f 108/1/3 103/1/3 106/1/3
f 108/1/3 106/1/3 107/1/3
f 111/3/3 110/3/3 109/3/3
f 112/3/3 110/3/3 111/3/3
f 113/3/3 112/3/3 111/3/3
f 114/3/3 112/3/3 113/3/3
f 115/3/4 116/3/4 117/3/4
f 117/3/4 116/3/4 118/3/4
f 117/3/4 118/3/4 119/3/4
f 119/3/4 118/3/4 120/3/4
f 121/2/4 122/2/4 125/2/4
f 125/2/4 122/2/4 126/2/4
f 123/3/4 124/3/4 127/3/4
f 127/3/4 124/3/4 128/3/4
f 126/2/4 127/2/4 129/2/4
f 129/2/4 127/2/4 130/2/4
f 131/2/4 132/2/4 134/2/4
f 134/2/4 132/2/4 135/2/4
f 133/3/4 134/3/4 137/3/4
f 137/3/4 134/3/4 138/3/4
f 135/2/4 136/2/4 139/2/4
f 139/2/4 136/2/4 140/2/4
f 140/2/4 141/2/4 142/2/4
f 140/2/4 142/2/4 144/2/4
f 144/2/4 142/2/4 145/2/4
f 142/1/4 143/1/4 146/1/4
f 145/2/4 142/2/4 146/2/4
f 145/1/4 146/1/4 147/1/4
f 146/1/4 143/1/4 148/1/4
f 147/1/4 146/1/4 148/1/4
f 149/3/4 150/3/4 151/3/4
f 151/3/4 150/3/4 152/3/4
f 155/2/5 154/2/5 153/2/5
f 156/2/5 154/2/5 155/2/5
f 159/2/5 158/2/5 157/2/5
f 160/2/5 158/2/5 159/2/5
f 164/3/5 162/3/5 161/3/5
f 165/3/5 162/3/5 164/3/5
f 166/3/5 162/3/5 165/3/5
f 168/3/5 164/3/5 163/3/5
f 169/3/5 164/3/5 168/3/5
f 171/3/5 167/3/5 166/3/5
f 172/3/5 167/3/5 171/3/5
f 173/3/5 170/3/5 169/3/5
f 173/3/5 171/3/5 170/3/5
f 174/3/5 171/3/5 173/3/5
f 177/2/5 176/2/5 175/2/5
f 178/2/5 176/2/5 177/2/5
f 181/2/5 180/2/5 179/2/5
f 182/2/5 180/2/5 181/2/5
f 185/2/5 184/2/5 183/2/5
f 186/2/5 184/2/5 185/2/5
f 189/1/5 188/1/5 187/1/5
f 190/1/5 188/1/5 189/1/5
f 191/2/6 192/2/6 193/2/6
f 193/2/6 192/2/6 194/2/6
f 195/2/6 196/2/6 197/2/6
f 197/2/6 196/2/6 198/2/6
f 199/3/6 200/3/6 202/3/6
f 202/3/6 200/3/6 203/3/6
f 203/3/6 200/3/6 204/3/6
f 201/3/6 202/3/6 206/3/6
f 206/3/6 202/3/6 207/3/6
f 204/3/6 205/3/6 209/3/6
f 209/3/6 205/3/6 210/3/6
f 207/3/6 208/3/6 211/3/6
f 208/3/6 209/3/6 211/3/6
f 211/3/6 209/3/6 212/3/6
f 213/2/6 214/2/6 215/2/6
f 215/2/6 214/2/6 216/2/6
f 217/2/6 218/2/6 219/2/6
f 219/2/6 218/2/6 220/2/6
f 221/2/6 222/2/6 223/2/6
f 223/2/6 222/2/6 224/2/6
f 225/1/6 226/1/6 227/1/6
f 227/1/6 226/1/6 228/1/6
