# MagicaVoxel @ Ephtracy

# group
o 

# material
mtllib bench.mtl
usemtl palette

# normals
vn -1 0 0
vn 1 0 0
vn 0 0 1
vn 0 0 -1
vn 0 -1 0
vn 0 1 0

# texcoords
vt 0.876953 0.5
vt 0.908203 0.5
vt 0.970703 0.5

# verts
v -0.7 0.5 0.3
v -0.7 0.5 0.2
v -0.7 0.5 0.1
v -0.7 0.5 0
v -0.7 0.5 -0.2
v -0.7 0.5 -0.3
v -0.7 0.6 0.3
v -0.7 0.6 0.2
v -0.7 0.6 0.1
v -0.7 0.6 0
v -0.7 0.6 -0.2
v -0.7 0.6 -0.3
v -0.6 0 0.2
v -0.6 0 0.1
v -0.6 0 -0.2
v -0.6 0 -0.3
v -0.6 0.1 0.1
v -0.6 0.1 0
v -0.6 0.1 -0.1
v -0.6 0.1 -0.2
v -0.6 0.2 0
v -0.6 0.2 -0.1
v -0.6 0.2 -0.2
v -0.6 0.3 0.1
v -0.6 0.3 0
v -0.6 0.3 -0.1
v -0.6 0.3 -0.2
v -0.6 0.3 -0.3
v -0.6 0.4 0.2
v -0.6 0.4 0.1
v -0.6 0.4 0
v -0.6 0.4 -0.1
v -0.6 0.4 -0.2
v -0.6 0.5 0.1
v -0.6 0.5 0
v -0.6 0.5 -0.1
v -0.5 0.4 0.2
v -0.5 0.4 0.1
v -0.5 0.4 -0.1
v -0.5 0.4 -0.2
v -0.5 0.5 0.2
v -0.5 0.5 0.1
v -0.5 0.5 -0.1
v -0.5 0.5 -0.2
v 0.5 0 0.2
v 0.5 0 0.1
v 0.5 0 -0.2
v 0.5 0 -0.3
v 0.5 0.1 0.1
v 0.5 0.1 0
v 0.5 0.1 -0.1
v 0.5 0.1 -0.2
v 0.5 0.2 0.1
v 0.5 0.2 0
v 0.5 0.2 -0.1
v 0.5 0.3 0.2
v 0.5 0.3 0.1
v 0.5 0.3 0
v 0.5 0.3 -0.1
v 0.5 0.3 -0.2
v 0.5 0.3 -0.3
v 0.5 0.4 0.2
v 0.5 0.4 0.1
v 0.5 0.4 -0.2
v -0.5 0 0.2
v -0.5 0 0.1
v -0.5 0 -0.2
v -0.5 0 -0.3
v -0.5 0.1 0.1
v -0.5 0.1 0
v -0.5 0.1 -0.1
v -0.5 0.1 -0.2
v -0.5 0.2 0
v -0.5 0.2 -0.1
v -0.5 0.2 -0.2
v -0.5 0.3 0.1
v -0.5 0.3 0
v -0.5 0.3 -0.1
v -0.5 0.3 -0.2
v -0.5 0.3 -0.3
v -0.5 0.4 0.2
v -0.5 0.4 0.1
v -0.5 0.4 -0.1
v -0.5 0.4 -0.2
v 0.5 0.4 0.2
v 0.5 0.4 0.1
v 0.5 0.4 -0.1
v 0.5 0.4 -0.2
v 0.5 0.5 0.2
v 0.5 0.5 0.1
v 0.5 0.5 -0.1
v 0.5 0.5 -0.2
v 0.6 0 0.2
v 0.6 0 0.1
v 0.6 0 -0.2
v 0.6 0 -0.3
v 0.6 0.1 0.1
v 0.6 0.1 0
v 0.6 0.1 -0.1
v 0.6 0.1 -0.2
v 0.6 0.2 0.1
v 0.6 0.2 0
v 0.6 0.2 -0.1
v 0.6 0.3 0.2
v 0.6 0.3 0.1
v 0.6 0.3 -0.1
v 0.6 0.3 -0.2
v 0.6 0.3 -0.3
v 0.6 0.4 0.2
v 0.6 0.4 0.1
v 0.6 0.4 -0.1
v 0.6 0.4 -0.2
v 0.6 0.5 0.1
v 0.6 0.5 0
v 0.6 0.5 -0.1
v 0.7 0.5 0.3
v 0.7 0.5 0.2
v 0.7 0.5 0.1
v 0.7 0.5 0
v 0.7 0.5 -0.1
v 0.7 0.5 -0.2
v 0.7 0.5 -0.3
v 0.7 0.6 0.3
v 0.7 0.6 0.2
v 0.7 0.6 0.1
v 0.7 0.6 0
v 0.7 0.6 -0.1
v 0.7 0.6 -0.2
v 0.7 0.6 -0.3
v -0.7 0.5 0.3
v -0.7 0.6 0.3
v -0.5 0.5 0.3
v -0.5 0.6 0.3
v -0.4 0.5 0.3
v -0.4 0.6 0.3
v -0.2 0.5 0.3
v -0.2 0.6 0.3
v -0.1 0.5 0.3
v -0.1 0.6 0.3
v 0.1 0.5 0.3
v 0.1 0.6 0.3
v 0.2 0.5 0.3
v 0.2 0.6 0.3
v 0.4 0.5 0.3
v 0.4 0.6 0.3
v 0.5 0.5 0.3
v 0.5 0.6 0.3
v 0.7 0.5 0.3
v 0.7 0.6 0.3
v -0.6 0 0.2
v -0.6 0.4 0.2
v -0.5 0 0.2
v -0.5 0.4 0.2
v -0.5 0.5 0.2
v -0.4 0.5 0.2
v -0.2 0.5 0.2
v -0.1 0.5 0.2
v 0.1 0.5 0.2
v 0.2 0.5 0.2
v 0.4 0.4 0.2
v 0.4 0.5 0.2
v 0.5 0 0.2
v 0.5 0.3 0.2
v 0.5 0.4 0.2
v 0.5 0.5 0.2
v 0.6 0 0.2
v 0.6 0.3 0.2
v 0.6 0.4 0.2
v -0.6 0.4 0.1
v -0.6 0.5 0.1
v -0.5 0.4 0.1
v -0.5 0.5 0.1
v 0.5 0.4 0.1
v 0.5 0.5 0.1
v 0.6 0.4 0.1
v 0.6 0.5 0.1
v -0.5 0.2 0
v -0.5 0.3 0
v 0.5 0.2 0
v 0.5 0.3 0
v -0.6 0.1 -0.1
v -0.6 0.2 -0.1
v -0.5 0.1 -0.1
v -0.5 0.2 -0.1
v 0.5 0.1 -0.1
v 0.5 0.2 -0.1
v 0.6 0.1 -0.1
v 0.6 0.2 -0.1
v -0.6 0 -0.2
v -0.6 0.1 -0.2
v -0.5 0 -0.2
v -0.5 0.1 -0.2
v 0.5 0 -0.2
v 0.5 0.1 -0.2
v 0.6 0 -0.2
v 0.6 0.1 -0.2
v -0.6 0 0.1
v -0.6 0.1 0.1
v -0.5 0 0.1
v -0.5 0.1 0.1
v 0.5 0 0.1
v 0.5 0.1 0.1
v 0.6 0 0.1
v 0.6 0.1 0.1
v -0.6 0.1 0
v -0.6 0.2 0
v -0.5 0.1 0
v -0.5 0.2 0
v 0.5 0.1 0
v 0.5 0.2 0
v 0.6 0.1 0
v 0.6 0.2 0
v -0.6 0.4 -0.1
v -0.6 0.5 -0.1
v -0.5 0.2 -0.1
v -0.5 0.3 -0.1
v -0.5 0.4 -0.1
v -0.5 0.5 -0.1
v 0.5 0.2 -0.1
v 0.5 0.3 -0.1
v 0.5 0.4 -0.1
v 0.5 0.5 -0.1
v 0.6 0.4 -0.1
v 0.6 0.5 -0.1
v -0.6 0.3 -0.2
v -0.6 0.4 -0.2
v -0.5 0.3 -0.2
v -0.5 0.4 -0.2
v -0.5 0.5 -0.2
v -0.4 0.5 -0.2
v -0.3 0.5 -0.2
v -0.1 0.5 -0.2
v 0 0.4 -0.2
v 0 0.5 -0.2
v 0.1 0.5 -0.2
v 0.3 0.5 -0.2
v 0.5 0.3 -0.2
v 0.5 0.4 -0.2
v 0.5 0.5 -0.2
v 0.6 0.3 -0.2
v 0.6 0.4 -0.2
v -0.7 0.5 -0.3
v -0.7 0.6 -0.3
v -0.6 0 -0.3
v -0.6 0.3 -0.3
v -0.5 0 -0.3
v -0.5 0.3 -0.3
v -0.5 0.5 -0.3
v -0.5 0.6 -0.3
v -0.4 0.5 -0.3
v -0.4 0.6 -0.3
v -0.3 0.5 -0.3
v -0.3 0.6 -0.3
v -0.1 0.5 -0.3
v -0.1 0.6 -0.3
v 0.1 0.5 -0.3
v 0.1 0.6 -0.3
v 0.3 0.5 -0.3
v 0.3 0.6 -0.3
v 0.5 0 -0.3
v 0.5 0.3 -0.3
v 0.5 0.5 -0.3
v 0.5 0.6 -0.3
v 0.6 0 -0.3
v 0.6 0.3 -0.3
v 0.7 0.5 -0.3
v 0.7 0.6 -0.3
v -0.6 0 0.2
v -0.5 0 0.2
v 0.5 0 0.2
v 0.6 0 0.2
v -0.6 0 0.1
v -0.5 0 0.1
v 0.5 0 0.1
v 0.6 0 0.1
v -0.6 0 -0.2
v -0.5 0 -0.2
v 0.5 0 -0.2
v 0.6 0 -0.2
v -0.6 0 -0.3
v -0.5 0 -0.3
v 0.5 0 -0.3
v 0.6 0 -0.3
v -0.6 0.1 0.1
v -0.5 0.1 0.1
v 0.5 0.1 0.1
v 0.6 0.1 0.1
v -0.6 0.1 0
v -0.5 0.1 0
v 0.5 0.1 0
v 0.6 0.1 0
v -0.6 0.1 -0.1
v -0.5 0.1 -0.1
v 0.5 0.1 -0.1
v 0.6 0.1 -0.1
v -0.6 0.1 -0.2
v -0.5 0.1 -0.2
v 0.5 0.1 -0.2
v 0.6 0.1 -0.2
v -0.6 0.2 0
v -0.5 0.2 0
v 0.5 0.2 0
v 0.6 0.2 0
v -0.6 0.2 -0.1
v -0.5 0.2 -0.1
v 0.5 0.2 -0.1
v 0.6 0.2 -0.1
v -0.5 0.4 0.2
v 0.4 0.4 0.2
v 0.5 0.4 0.2
v -0.5 0.4 0.1
v 0.4 0.4 0.1
v 0.5 0.4 0.1
v -0.5 0.4 -0.1
v 0 0.4 -0.1
v -0.5 0.4 -0.2
v 0 0.4 -0.2
v 0.5 0.4 -0.2
v -0.7 0.5 0.3
v -0.5 0.5 0.3
v -0.4 0.5 0.3
v -0.2 0.5 0.3
v -0.1 0.5 0.3
v 0.1 0.5 0.3
v 0.2 0.5 0.3
v 0.4 0.5 0.3
v 0.5 0.5 0.3
v 0.7 0.5 0.3
v -0.7 0.5 0.2
v -0.5 0.5 0.2
v -0.4 0.5 0.2
v -0.2 0.5 0.2
v -0.1 0.5 0.2
v 0.1 0.5 0.2
v 0.2 0.5 0.2
v 0.4 0.5 0.2
v 0.5 0.5 0.2
v 0.7 0.5 0.2
v -0.7 0.5 0.1
v -0.6 0.5 0.1
v -0.5 0.5 0.1
v 0.5 0.5 0.1
v 0.6 0.5 0.1
v 0.7 0.5 0.1
v -0.7 0.5 0
v -0.6 0.5 0
v 0.6 0.5 0
v 0.7 0.5 0
v -0.6 0.5 -0.1
v -0.5 0.5 -0.1
v 0.5 0.5 -0.1
v 0.6 0.5 -0.1
v 0.7 0.5 -0.1
v -0.7 0.5 -0.2
v -0.5 0.5 -0.2
v -0.4 0.5 -0.2
v -0.3 0.5 -0.2
v -0.1 0.5 -0.2
v 0 0.5 -0.2
v 0.1 0.5 -0.2
v 0.3 0.5 -0.2
v 0.5 0.5 -0.2
v 0.7 0.5 -0.2
v -0.7 0.5 -0.3
v -0.5 0.5 -0.3
v -0.4 0.5 -0.3
v -0.3 0.5 -0.3
v -0.1 0.5 -0.3
v 0.1 0.5 -0.3
v 0.3 0.5 -0.3
v 0.5 0.5 -0.3
v 0.7 0.5 -0.3
v -0.5 0.3 0
v 0.5 0.3 0
v -0.5 0.3 -0.1
v 0.5 0.3 -0.1
v -0.6 0.3 -0.2
v -0.5 0.3 -0.2
v 0.5 0.3 -0.2
v 0.6 0.3 -0.2
v -0.6 0.3 -0.3
v -0.5 0.3 -0.3
v 0.5 0.3 -0.3
v 0.6 0.3 -0.3
v -0.6 0.4 0.2
v -0.5 0.4 0.2
v 0.5 0.4 0.2
v 0.6 0.4 0.2
v -0.6 0.4 0.1
v -0.5 0.4 0.1
v 0.5 0.4 0.1
v 0.6 0.4 0.1
v -0.6 0.4 -0.1
v -0.5 0.4 -0.1
v 0.5 0.4 -0.1
v 0.6 0.4 -0.1
v -0.6 0.4 -0.2
v -0.5 0.4 -0.2
v 0.5 0.4 -0.2
v 0.6 0.4 -0.2
v -0.7 0.6 0.3
v -0.5 0.6 0.3
v -0.4 0.6 0.3
v -0.2 0.6 0.3
v -0.1 0.6 0.3
v 0.1 0.6 0.3
v 0.2 0.6 0.3
v 0.4 0.6 0.3
v 0.5 0.6 0.3
v 0.7 0.6 0.3
v -0.7 0.6 0.2
v -0.5 0.6 0.2
v -0.4 0.6 0.2
v -0.3 0.6 0.2
v -0.2 0.6 0.2
v -0.1 0.6 0.2
v 0 0.6 0.2
v 0.1 0.6 0.2
v 0.2 0.6 0.2
v 0.4 0.6 0.2
v 0.5 0.6 0.2
v 0.7 0.6 0.2
v -0.7 0.6 0.1
v -0.6 0.6 0.1
v -0.5 0.6 0.1
v -0.3 0.6 0.1
v 0 0.6 0.1
v 0.2 0.6 0.1
v 0.5 0.6 0.1
v 0.7 0.6 0.1
v -0.7 0.6 0
v -0.6 0.6 0
v -0.4 0.6 0
v -0.3 0.6 0
v -0.1 0.6 0
v 0 0.6 0
v 0.1 0.6 0
v 0.2 0.6 0
v 0.3 0.6 0
v 0.5 0.6 0
v 0.7 0.6 0
v -0.6 0.6 -0.1
v -0.4 0.6 -0.1
v -0.3 0.6 -0.1
v -0.1 0.6 -0.1
v 0.1 0.6 -0.1
v 0.3 0.6 -0.1
v 0.5 0.6 -0.1
v 0.7 0.6 -0.1
v -0.7 0.6 -0.2
v -0.5 0.6 -0.2
v -0.4 0.6 -0.2
v -0.3 0.6 -0.2
v -0.1 0.6 -0.2
v 0.1 0.6 -0.2
v 0.3 0.6 -0.2
v 0.5 0.6 -0.2
v 0.7 0.6 -0.2
v -0.7 0.6 -0.3
v -0.5 0.6 -0.3
v -0.4 0.6 -0.3
v -0.3 0.6 -0.3
v -0.1 0.6 -0.3
v 0.1 0.6 -0.3
v 0.3 0.6 -0.3
v 0.5 0.6 -0.3
v 0.7 0.6 -0.3

# faces
f 7/2/1 2/2/1 1/2/1
f 8/3/1 3/3/1 2/3/1
f 8/2/1 2/2/1 7/2/1
f 9/1/1 4/1/1 3/1/1
f 9/3/1 3/3/1 8/3/1
f 10/3/1 5/3/1 4/3/1
f 10/1/1 4/1/1 9/1/1
f 11/1/1 6/1/1 5/1/1
f 11/3/1 5/3/1 10/3/1
f 12/1/1 6/1/1 11/1/1
f 17/3/1 14/3/1 13/3/1
f 20/2/1 16/2/1 15/2/1
f 21/3/1 18/3/1 17/3/1
f 22/3/1 20/3/1 19/3/1
f 23/2/1 16/2/1 20/2/1
f 23/3/1 20/3/1 22/3/1
f 24/3/1 21/3/1 17/3/1
f 24/3/1 17/3/1 13/3/1
f 25/1/1 23/1/1 22/1/1
f 25/3/1 21/3/1 24/3/1
f 25/1/1 22/1/1 21/1/1
f 26/1/1 23/1/1 25/1/1
f 27/2/1 16/2/1 23/2/1
f 27/1/1 23/1/1 26/1/1
f 28/2/1 16/2/1 27/2/1
f 29/3/1 24/3/1 13/3/1
f 30/1/1 26/1/1 25/1/1
f 30/3/1 24/3/1 29/3/1
f 30/1/1 25/1/1 24/1/1
f 31/1/1 26/1/1 30/1/1
f 32/2/1 27/2/1 26/2/1
f 32/1/1 26/1/1 31/1/1
f 33/2/1 27/2/1 32/2/1
f 34/3/1 31/3/1 30/3/1
f 35/2/1 32/2/1 31/2/1
f 35/3/1 31/3/1 34/3/1
f 36/2/1 32/2/1 35/2/1
f 41/1/1 38/1/1 37/1/1
f 42/1/1 38/1/1 41/1/1
f 43/1/1 40/1/1 39/1/1
f 44/1/1 40/1/1 43/1/1
f 49/3/1 46/3/1 45/3/1
f 52/1/1 48/1/1 47/1/1
f 53/3/1 50/3/1 49/3/1
f 53/3/1 49/3/1 45/3/1
f 54/3/1 50/3/1 53/3/1
f 55/3/1 52/3/1 51/3/1
f 56/3/1 53/3/1 45/3/1
f 57/1/1 54/1/1 53/1/1
f 57/3/1 53/3/1 56/3/1
f 58/1/1 54/1/1 57/1/1
f 59/3/1 52/3/1 55/3/1
f 60/1/1 48/1/1 52/1/1
f 60/3/1 52/3/1 59/3/1
f 61/1/1 48/1/1 60/1/1
f 62/1/1 57/1/1 56/1/1
f 63/3/1 59/3/1 58/3/1
f 63/1/1 57/1/1 62/1/1
f 63/3/1 58/3/1 57/3/1
f 63/3/1 60/3/1 59/3/1
f 64/3/1 60/3/1 63/3/1
f 65/3/2 66/3/2 69/3/2
f 67/2/2 68/2/2 72/2/2
f 69/3/2 70/3/2 73/3/2
f 71/3/2 72/3/2 74/3/2
f 72/2/2 68/2/2 75/2/2
f 74/3/2 72/3/2 75/3/2
f 69/3/2 73/3/2 76/3/2
f 65/3/2 69/3/2 76/3/2
f 76/3/2 73/3/2 77/3/2
f 74/1/2 75/1/2 78/1/2
f 75/2/2 68/2/2 79/2/2
f 78/1/2 75/1/2 79/1/2
f 79/2/2 68/2/2 80/2/2
f 65/3/2 76/3/2 81/3/2
f 77/1/2 78/1/2 82/1/2
f 81/3/2 76/3/2 82/3/2
f 76/1/2 77/1/2 82/1/2
f 78/2/2 79/2/2 83/2/2
f 82/1/2 78/1/2 83/1/2
f 83/2/2 79/2/2 84/2/2
f 85/3/2 86/3/2 89/3/2
f 89/3/2 86/3/2 90/3/2
f 87/3/2 88/3/2 91/3/2
f 91/3/2 88/3/2 92/3/2
f 93/3/2 94/3/2 97/3/2
f 95/1/2 96/1/2 100/1/2
f 97/3/2 98/3/2 101/3/2
f 93/3/2 97/3/2 101/3/2
f 101/3/2 98/3/2 102/3/2
f 99/3/2 100/3/2 103/3/2
f 93/3/2 101/3/2 104/3/2
f 101/1/2 102/1/2 105/1/2
f 104/3/2 101/3/2 105/3/2
f 102/1/2 103/1/2 105/1/2
f 103/3/2 100/3/2 106/3/2
f 105/1/2 103/1/2 106/1/2
f 100/1/2 96/1/2 107/1/2
f 106/3/2 100/3/2 107/3/2
f 107/1/2 96/1/2 108/1/2
f 104/1/2 105/1/2 109/1/2
f 105/3/2 106/3/2 110/3/2
f 109/1/2 105/1/2 110/1/2
f 106/3/2 107/3/2 110/3/2
f 110/3/2 107/3/2 111/3/2
f 111/3/2 107/3/2 112/3/2
f 110/3/2 111/3/2 113/3/2
f 113/3/2 111/3/2 114/3/2
f 114/3/2 111/3/2 115/3/2
f 116/1/2 117/1/2 123/1/2
f 117/3/2 118/3/2 124/3/2
f 123/1/2 117/1/2 124/1/2
f 118/1/2 119/1/2 125/1/2
f 124/3/2 118/3/2 125/3/2
f 119/2/2 120/2/2 126/2/2
f 125/1/2 119/1/2 126/1/2
f 120/3/2 121/3/2 127/3/2
f 126/2/2 120/2/2 127/2/2
f 121/2/2 122/2/2 128/2/2
f 127/3/2 121/3/2 128/3/2
f 128/2/2 122/2/2 129/2/2
f 132/2/3 131/2/3 130/2/3
f 133/2/3 131/2/3 132/2/3
f 134/3/3 133/3/3 132/3/3
f 135/3/3 133/3/3 134/3/3
f 136/1/3 135/1/3 134/1/3
f 137/1/3 135/1/3 136/1/3
f 138/3/3 137/3/3 136/3/3
f 139/3/3 137/3/3 138/3/3
f 140/2/3 139/2/3 138/2/3
f 141/2/3 139/2/3 140/2/3
f 142/3/3 141/3/3 140/3/3
f 143/3/3 141/3/3 142/3/3
f 144/1/3 143/1/3 142/1/3
f 145/1/3 143/1/3 144/1/3
f 146/3/3 145/3/3 144/3/3
f 147/3/3 145/3/3 146/3/3
f 148/1/3 147/1/3 146/1/3
f 149/1/3 147/1/3 148/1/3
f 152/3/3 151/3/3 150/3/3
f 153/3/3 151/3/3 152/3/3
f 155/1/3 154/1/3 153/1/3
f 156/1/3 155/1/3 153/1/3
f 157/1/3 156/1/3 153/1/3
f 158/1/3 157/1/3 153/1/3
f 159/1/3 158/1/3 153/1/3
f 160/1/3 159/1/3 153/1/3
f 161/1/3 159/1/3 160/1/3
f 164/3/3 161/3/3 160/3/3
f 165/3/3 161/3/3 164/3/3
f 166/3/3 163/3/3 162/3/3
f 167/1/3 164/1/3 163/1/3
f 167/3/3 163/3/3 166/3/3
f 168/1/3 164/1/3 167/1/3
f 171/3/3 170/3/3 169/3/3
f 172/3/3 170/3/3 171/3/3
f 175/3/3 174/3/3 173/3/3
f 176/3/3 174/3/3 175/3/3
f 179/1/3 178/1/3 177/1/3
f 180/1/3 178/1/3 179/1/3
f 183/3/3 182/3/3 181/3/3
f 184/3/3 182/3/3 183/3/3
f 187/3/3 186/3/3 185/3/3
f 188/3/3 186/3/3 187/3/3
f 191/2/3 190/2/3 189/2/3
f 192/2/3 190/2/3 191/2/3
f 195/1/3 194/1/3 193/1/3
f 196/1/3 194/1/3 195/1/3
f 197/3/4 198/3/4 199/3/4
f 199/3/4 198/3/4 200/3/4
f 201/3/4 202/3/4 203/3/4
f 203/3/4 202/3/4 204/3/4
f 205/3/4 206/3/4 207/3/4
f 207/3/4 206/3/4 208/3/4
f 209/3/4 210/3/4 211/3/4
f 211/3/4 210/3/4 212/3/4
f 213/2/4 214/2/4 217/2/4
f 217/2/4 214/2/4 218/2/4
f 215/1/4 216/1/4 219/1/4
f 219/1/4 216/1/4 220/1/4
f 221/3/4 222/3/4 223/3/4
f 223/3/4 222/3/4 224/3/4
f 225/2/4 226/2/4 227/2/4
f 227/2/4 226/2/4 228/2/4
f 228/1/4 229/1/4 230/1/4
f 228/1/4 230/1/4 231/1/4
f 228/1/4 231/1/4 232/1/4
f 228/1/4 232/1/4 233/1/4
f 233/1/4 232/1/4 234/1/4
f 233/3/4 234/3/4 235/3/4
f 233/3/4 235/3/4 236/3/4
f 233/3/4 236/3/4 238/3/4
f 238/3/4 236/3/4 239/3/4
f 237/3/4 238/3/4 240/3/4
f 240/3/4 238/3/4 241/3/4
f 244/2/4 245/2/4 246/2/4
f 246/2/4 245/2/4 247/2/4
f 242/1/4 243/1/4 248/1/4
f 248/1/4 243/1/4 249/1/4
f 248/2/4 249/2/4 250/2/4
f 250/2/4 249/2/4 251/2/4
f 250/3/4 251/3/4 252/3/4
f 252/3/4 251/3/4 253/3/4
f 252/2/4 253/2/4 254/2/4
f 254/2/4 253/2/4 255/2/4
f 254/3/4 255/3/4 256/3/4
f 256/3/4 255/3/4 257/3/4
f 256/1/4 257/1/4 258/1/4
f 258/1/4 257/1/4 259/1/4
f 258/3/4 259/3/4 262/3/4
f 262/3/4 259/3/4 263/3/4
f 260/1/4 261/1/4 264/1/4
f 264/1/4 261/1/4 265/1/4
f 262/2/4 263/2/4 266/2/4
f 266/2/4 263/2/4 267/2/4
f 272/3/5 269/3/5 268/3/5
f 273/3/5 269/3/5 272/3/5
f 274/3/5 271/3/5 270/3/5
f 275/3/5 271/3/5 274/3/5
f 280/2/5 277/2/5 276/2/5
f 281/2/5 277/2/5 280/2/5
f 282/1/5 279/1/5 278/1/5
f 283/1/5 279/1/5 282/1/5
f 288/3/5 285/3/5 284/3/5
f 289/3/5 285/3/5 288/3/5
f 290/3/5 287/3/5 286/3/5
f 291/3/5 287/3/5 290/3/5
f 296/3/5 293/3/5 292/3/5
f 297/3/5 293/3/5 296/3/5
f 298/3/5 295/3/5 294/3/5
f 299/3/5 295/3/5 298/3/5
f 304/1/5 301/1/5 300/1/5
f 304/1/5 303/1/5 302/1/5
f 304/1/5 302/1/5 301/1/5
f 305/1/5 303/1/5 304/1/5
f 306/1/5 303/1/5 305/1/5
f 307/1/5 303/1/5 306/1/5
f 311/1/5 309/1/5 308/1/5
f 312/3/5 310/3/5 309/3/5
f 312/1/5 309/1/5 311/1/5
f 313/3/5 310/3/5 312/3/5
f 314/3/5 312/3/5 311/3/5
f 314/3/5 313/3/5 312/3/5
f 315/3/5 313/3/5 314/3/5
f 316/1/5 315/1/5 314/1/5
f 317/3/5 313/3/5 315/3/5
f 317/1/5 315/1/5 316/1/5
f 318/3/5 313/3/5 317/3/5
f 329/2/5 320/2/5 319/2/5
f 330/3/5 321/3/5 320/3/5
f 330/2/5 320/2/5 329/2/5
f 331/1/5 322/1/5 321/1/5
f 331/3/5 321/3/5 330/3/5
f 332/3/5 323/3/5 322/3/5
f 332/1/5 322/1/5 331/1/5
f 333/2/5 324/2/5 323/2/5
f 333/3/5 323/3/5 332/3/5
f 334/3/5 325/3/5 324/3/5
f 334/2/5 324/2/5 333/2/5
f 335/1/5 326/1/5 325/1/5
f 335/3/5 325/3/5 334/3/5
f 336/3/5 327/3/5 326/3/5
f 336/1/5 326/1/5 335/1/5
f 337/1/5 328/1/5 327/1/5
f 337/3/5 327/3/5 336/3/5
f 338/1/5 328/1/5 337/1/5
f 339/3/5 330/3/5 329/3/5
f 340/3/5 330/3/5 339/3/5
f 341/3/5 330/3/5 340/3/5
f 342/3/5 338/3/5 337/3/5
f 343/3/5 338/3/5 342/3/5
f 344/3/5 338/3/5 343/3/5
f 345/1/5 340/1/5 339/1/5
f 346/1/5 340/1/5 345/1/5
f 347/1/5 344/1/5 343/1/5
f 348/1/5 344/1/5 347/1/5
f 349/3/5 346/3/5 345/3/5
f 352/2/5 348/2/5 347/2/5
f 353/2/5 348/2/5 352/2/5
f 354/3/5 350/3/5 349/3/5
f 354/3/5 349/3/5 345/3/5
f 355/3/5 350/3/5 354/3/5
f 362/3/5 353/3/5 352/3/5
f 362/3/5 352/3/5 351/3/5
f 363/3/5 353/3/5 362/3/5
f 364/1/5 355/1/5 354/1/5
f 365/2/5 356/2/5 355/2/5
f 365/1/5 355/1/5 364/1/5
f 366/3/5 357/3/5 356/3/5
f 366/2/5 356/2/5 365/2/5
f 367/2/5 358/2/5 357/2/5
f 367/3/5 357/3/5 366/3/5
f 368/3/5 360/3/5 359/3/5
f 368/2/5 358/2/5 367/2/5
f 368/3/5 359/3/5 358/3/5
f 369/1/5 361/1/5 360/1/5
f 369/3/5 360/3/5 368/3/5
f 370/3/5 362/3/5 361/3/5
f 370/1/5 361/1/5 369/1/5
f 371/2/5 363/2/5 362/2/5
f 371/3/5 362/3/5 370/3/5
f 372/2/5 363/2/5 371/2/5
f 373/1/6 374/1/6 375/1/6
f 375/1/6 374/1/6 376/1/6
f 377/2/6 378/2/6 381/2/6
f 381/2/6 378/2/6 382/2/6
f 379/1/6 380/1/6 383/1/6
f 383/1/6 380/1/6 384/1/6
f 385/3/6 386/3/6 389/3/6
f 389/3/6 386/3/6 390/3/6
f 387/1/6 388/1/6 391/1/6
f 391/1/6 388/1/6 392/1/6
f 393/2/6 394/2/6 397/2/6
f 397/2/6 394/2/6 398/2/6
f 395/3/6 396/3/6 399/3/6
f 399/3/6 396/3/6 400/3/6
f 401/2/6 402/2/6 411/2/6
f 402/3/6 403/3/6 412/3/6
f 411/2/6 402/2/6 412/2/6
f 403/1/6 404/1/6 413/1/6
f 412/3/6 403/3/6 413/3/6
f 413/1/6 404/1/6 414/1/6
f 404/3/6 405/3/6 415/3/6
f 414/1/6 404/1/6 415/1/6
f 405/2/6 406/2/6 416/2/6
f 415/3/6 405/3/6 416/3/6
f 416/2/6 406/2/6 417/2/6
f 406/3/6 407/3/6 418/3/6
f 417/2/6 406/2/6 418/2/6
f 407/1/6 408/1/6 419/1/6
f 418/3/6 407/3/6 419/3/6
f 408/3/6 409/3/6 420/3/6
f 419/1/6 408/1/6 420/1/6
f 409/1/6 410/1/6 421/1/6
f 420/3/6 409/3/6 421/3/6
f 421/1/6 410/1/6 422/1/6
f 411/3/6 412/3/6 423/3/6
f 423/3/6 412/3/6 424/3/6
f 413/2/6 414/2/6 425/2/6
f 424/3/6 412/3/6 425/3/6
f 412/2/6 413/2/6 425/2/6
f 414/3/6 415/3/6 426/3/6
f 425/2/6 414/2/6 426/2/6
f 416/3/6 417/3/6 426/3/6
f 415/3/6 416/3/6 426/3/6
f 417/1/6 418/1/6 427/1/6
f 426/3/6 417/3/6 427/3/6
f 418/1/6 419/1/6 427/1/6
f 419/3/6 420/3/6 428/3/6
f 427/1/6 419/1/6 428/1/6
f 421/3/6 422/3/6 428/3/6
f 420/3/6 421/3/6 428/3/6
f 428/3/6 422/3/6 429/3/6
f 429/3/6 422/3/6 430/3/6
f 423/1/6 424/1/6 431/1/6
f 426/3/6 427/3/6 432/3/6
f 431/1/6 424/1/6 432/1/6
f 424/3/6 425/3/6 432/3/6
f 425/3/6 426/3/6 432/3/6
f 432/3/6 427/3/6 433/3/6
f 433/3/6 427/3/6 434/3/6
f 434/3/6 427/3/6 435/3/6
f 427/2/6 428/2/6 436/2/6
f 435/3/6 427/3/6 436/3/6
f 436/2/6 428/2/6 437/2/6
f 428/3/6 429/3/6 438/3/6
f 437/2/6 428/2/6 438/2/6
f 438/3/6 429/3/6 439/3/6
f 429/1/6 430/1/6 440/1/6
f 439/3/6 429/3/6 440/3/6
f 440/1/6 430/1/6 441/1/6
f 431/3/6 432/3/6 442/3/6
f 432/1/6 433/1/6 442/1/6
f 433/3/6 434/3/6 443/3/6
f 442/1/6 433/1/6 443/1/6
f 434/2/6 435/2/6 444/2/6
f 443/3/6 434/3/6 444/3/6
f 436/1/6 437/1/6 445/1/6
f 444/2/6 435/2/6 445/2/6
f 435/1/6 436/1/6 445/1/6
f 438/3/6 439/3/6 446/3/6
f 445/1/6 437/1/6 446/1/6
f 437/3/6 438/3/6 446/3/6
f 439/1/6 440/1/6 447/1/6
f 446/3/6 439/3/6 447/3/6
f 440/2/6 441/2/6 448/2/6
f 447/1/6 440/1/6 448/1/6
f 448/2/6 441/2/6 449/2/6
f 444/3/6 445/3/6 450/3/6
f 443/3/6 444/3/6 450/3/6
f 442/3/6 443/3/6 450/3/6
f 431/3/6 442/3/6 450/3/6
f 445/3/6 446/3/6 450/3/6
f 450/3/6 446/3/6 451/3/6
f 451/3/6 446/3/6 452/3/6
f 452/3/6 446/3/6 453/3/6
f 453/3/6 446/3/6 454/3/6
f 446/2/6 447/2/6 455/2/6
f 454/3/6 446/3/6 455/3/6
f 448/3/6 449/3/6 456/3/6
f 455/2/6 447/2/6 456/2/6
f 447/3/6 448/3/6 456/3/6
f 456/3/6 449/3/6 457/3/6
f 457/3/6 449/3/6 458/3/6
f 450/1/6 451/1/6 459/1/6
f 451/2/6 452/2/6 460/2/6
f 459/1/6 451/1/6 460/1/6
f 452/3/6 453/3/6 461/3/6
f 460/2/6 452/2/6 461/2/6
f 453/2/6 454/2/6 462/2/6
f 461/3/6 453/3/6 462/3/6
f 454/3/6 455/3/6 463/3/6
f 462/2/6 454/2/6 463/2/6
f 455/1/6 456/1/6 464/1/6
f 463/3/6 455/3/6 464/3/6
f 456/3/6 457/3/6 465/3/6
f 464/1/6 456/1/6 465/1/6
f 457/2/6 458/2/6 466/2/6
f 465/3/6 457/3/6 466/3/6
f 466/2/6 458/2/6 467/2/6
