# MagicaVoxel @ Ephtracy

# group
o 

# material
mtllib path2.mtl
usemtl palette

# normals
vn -1 0 0
vn 1 0 0
vn 0 0 1
vn 0 0 -1
vn 0 -1 0
vn 0 1 0

# texcoords
vt 0.880859 0.5
vt 0.912109 0.5
vt 0.943359 0.5
vt 0.974609 0.5

# verts
v 0 0 0
v 0 0 -0.5
v 0 0 -0.6
v 0 0 -0.9
v 0 0.1 0
v 0 0.1 -0.5
v 0 0.1 -0.6
v 0 0.1 -0.9
v 0.2 0 -0.9
v 0.2 0 -1
v 0.2 0.1 -0.9
v 0.2 0.1 -1
v 0.6 0 0
v 0.6 0 -0.5
v 0.6 0 -0.8
v 0.6 0 -1.1
v 0.6 0.1 0
v 0.6 0.1 -0.5
v 0.6 0.1 -0.8
v 0.6 0.1 -1.1
v 0.7 0 -0.7
v 0.7 0 -0.8
v 0.7 0.1 -0.7
v 0.7 0.1 -0.8
v 0.8 0 -0.6
v 0.8 0 -0.7
v 0.8 0.1 -0.6
v 0.8 0.1 -0.7
v 0.3 0 -0.4
v 0.3 0 -0.5
v 0.3 0.1 -0.4
v 0.3 0.1 -0.5
v 0.4 0 -0.3
v 0.4 0 -0.4
v 0.4 0.1 -0.3
v 0.4 0.1 -0.4
v 0.5 0 0
v 0.5 0 -0.3
v 0.5 0 -0.6
v 0.5 0 -1
v 0.5 0.1 0
v 0.5 0.1 -0.3
v 0.5 0.1 -0.6
v 0.5 0.1 -1
v 0.9 0 0
v 0.9 0 -0.1
v 0.9 0.1 0
v 0.9 0.1 -0.1
v 1 0 -0.1
v 1 0 -0.2
v 1 0.1 -0.1
v 1 0.1 -0.2
v 1.1 0 -0.2
v 1.1 0 -0.5
v 1.1 0 -0.6
v 1.1 0 -1.1
v 1.1 0.1 -0.2
v 1.1 0.1 -0.5
v 1.1 0.1 -0.6
v 1.1 0.1 -1.1
v 0 0 0
v 0 0.1 0
v 0.5 0 0
v 0.5 0.1 0
v 0.6 0 0
v 0.6 0.1 0
v 0.9 0 0
v 0.9 0.1 0
v 0.9 0 -0.1
v 0.9 0.1 -0.1
v 1 0 -0.1
v 1 0.1 -0.1
v 1 0 -0.2
v 1 0.1 -0.2
v 1.1 0 -0.2
v 1.1 0.1 -0.2
v 0 0 -0.6
v 0 0.1 -0.6
v 0.5 0 -0.6
v 0.5 0.1 -0.6
v 0.8 0 -0.6
v 0.8 0.1 -0.6
v 1.1 0 -0.6
v 1.1 0.1 -0.6
v 0.7 0 -0.7
v 0.7 0.1 -0.7
v 0.8 0 -0.7
v 0.8 0.1 -0.7
v 0.6 0 -0.8
v 0.6 0.1 -0.8
v 0.7 0 -0.8
v 0.7 0.1 -0.8
v 0.4 0 -0.3
v 0.4 0.1 -0.3
v 0.5 0 -0.3
v 0.5 0.1 -0.3
v 0.3 0 -0.4
v 0.3 0.1 -0.4
v 0.4 0 -0.4
v 0.4 0.1 -0.4
v 0 0 -0.5
v 0 0.1 -0.5
v 0.3 0 -0.5
v 0.3 0.1 -0.5
v 0.6 0 -0.5
v 0.6 0.1 -0.5
v 1.1 0 -0.5
v 1.1 0.1 -0.5
v 0 0 -0.9
v 0 0.1 -0.9
v 0.2 0 -0.9
v 0.2 0.1 -0.9
v 0.2 0 -1
v 0.2 0.1 -1
v 0.5 0 -1
v 0.5 0.1 -1
v 0.6 0 -1.1
v 0.6 0.1 -1.1
v 1.1 0 -1.1
v 1.1 0.1 -1.1
v 0 0 0
v 0.5 0 0
v 0.6 0 0
v 0.9 0 0
v 0.9 0 -0.1
v 1 0 -0.1
v 1 0 -0.2
v 1.1 0 -0.2
v 0.4 0 -0.3
v 0.5 0 -0.3
v 0.3 0 -0.4
v 0.4 0 -0.4
v 0 0 -0.5
v 0.3 0 -0.5
v 0.6 0 -0.5
v 1.1 0 -0.5
v 0 0 -0.6
v 0.5 0 -0.6
v 0.8 0 -0.6
v 1.1 0 -0.6
v 0.7 0 -0.7
v 0.8 0 -0.7
v 0.6 0 -0.8
v 0.7 0 -0.8
v 0 0 -0.9
v 0.2 0 -0.9
v 0.2 0 -1
v 0.5 0 -1
v 0.6 0 -1.1
v 1.1 0 -1.1
v 0 0.1 0
v 0.5 0.1 0
v 0.6 0.1 0
v 0.9 0.1 0
v 0.9 0.1 -0.1
v 1 0.1 -0.1
v 1 0.1 -0.2
v 1.1 0.1 -0.2
v 0.4 0.1 -0.3
v 0.5 0.1 -0.3
v 0.3 0.1 -0.4
v 0.4 0.1 -0.4
v 0 0.1 -0.5
v 0.3 0.1 -0.5
v 0.6 0.1 -0.5
v 1.1 0.1 -0.5
v 0 0.1 -0.6
v 0.5 0.1 -0.6
v 0.8 0.1 -0.6
v 1.1 0.1 -0.6
v 0.7 0.1 -0.7
v 0.8 0.1 -0.7
v 0.6 0.1 -0.8
v 0.7 0.1 -0.8
v 0 0.1 -0.9
v 0.2 0.1 -0.9
v 0.2 0.1 -1
v 0.5 0.1 -1
v 0.6 0.1 -1.1
v 1.1 0.1 -1.1

# faces
f 5/4/1 2/4/1 1/4/1
f 6/4/1 2/4/1 5/4/1
f 7/2/1 4/2/1 3/2/1
f 8/2/1 4/2/1 7/2/1
f 11/2/1 10/2/1 9/2/1
f 12/2/1 10/2/1 11/2/1
f 17/1/1 14/1/1 13/1/1
f 18/1/1 14/1/1 17/1/1
f 19/3/1 16/3/1 15/3/1
f 20/3/1 16/3/1 19/3/1
f 23/3/1 22/3/1 21/3/1
f 24/3/1 22/3/1 23/3/1
f 27/3/1 26/3/1 25/3/1
f 28/3/1 26/3/1 27/3/1
f 29/4/2 30/4/2 31/4/2
f 31/4/2 30/4/2 32/4/2
f 33/4/2 34/4/2 35/4/2
f 35/4/2 34/4/2 36/4/2
f 37/4/2 38/4/2 41/4/2
f 41/4/2 38/4/2 42/4/2
f 39/2/2 40/2/2 43/2/2
f 43/2/2 40/2/2 44/2/2
f 45/1/2 46/1/2 47/1/2
f 47/1/2 46/1/2 48/1/2
f 49/1/2 50/1/2 51/1/2
f 51/1/2 50/1/2 52/1/2
f 53/1/2 54/1/2 57/1/2
f 57/1/2 54/1/2 58/1/2
f 55/3/2 56/3/2 59/3/2
f 59/3/2 56/3/2 60/3/2
f 63/4/3 62/4/3 61/4/3
f 64/4/3 62/4/3 63/4/3
f 67/1/3 66/1/3 65/1/3
f 68/1/3 66/1/3 67/1/3
f 71/1/3 70/1/3 69/1/3
f 72/1/3 70/1/3 71/1/3
f 75/1/3 74/1/3 73/1/3
f 76/1/3 74/1/3 75/1/3
f 79/2/3 78/2/3 77/2/3
f 80/2/3 78/2/3 79/2/3
f 83/3/3 82/3/3 81/3/3
f 84/3/3 82/3/3 83/3/3
f 87/3/3 86/3/3 85/3/3
f 88/3/3 86/3/3 87/3/3
f 91/3/3 90/3/3 89/3/3
f 92/3/3 90/3/3 91/3/3
f 93/4/4 94/4/4 95/4/4
f 95/4/4 94/4/4 96/4/4
f 97/4/4 98/4/4 99/4/4
f 99/4/4 98/4/4 100/4/4
f 101/4/4 102/4/4 103/4/4
f 103/4/4 102/4/4 104/4/4
f 105/1/4 106/1/4 107/1/4
f 107/1/4 106/1/4 108/1/4
f 109/2/4 110/2/4 111/2/4
f 111/2/4 110/2/4 112/2/4
f 113/2/4 114/2/4 115/2/4
f 115/2/4 114/2/4 116/2/4
f 117/3/4 118/3/4 119/3/4
f 119/3/4 118/3/4 120/3/4
f 125/1/5 124/1/5 123/1/5
f 127/1/5 126/1/5 125/1/5
f 129/4/5 122/4/5 121/4/5
f 130/4/5 122/4/5 129/4/5
f 131/4/5 129/4/5 121/4/5
f 132/4/5 129/4/5 131/4/5
f 133/4/5 131/4/5 121/4/5
f 134/4/5 131/4/5 133/4/5
f 135/1/5 128/1/5 127/1/5
f 135/1/5 125/1/5 123/1/5
f 135/1/5 127/1/5 125/1/5
f 136/1/5 128/1/5 135/1/5
f 142/3/5 140/3/5 139/3/5
f 144/3/5 142/3/5 141/3/5
f 145/2/5 138/2/5 137/2/5
f 146/2/5 138/2/5 145/2/5
f 147/2/5 138/2/5 146/2/5
f 148/2/5 138/2/5 147/2/5
f 149/3/5 144/3/5 143/3/5
f 150/3/5 140/3/5 142/3/5
f 150/3/5 144/3/5 149/3/5
f 150/3/5 142/3/5 144/3/5
f 153/1/6 154/1/6 155/1/6
f 155/1/6 156/1/6 157/1/6
f 151/4/6 152/4/6 159/4/6
f 159/4/6 152/4/6 160/4/6
f 151/4/6 159/4/6 161/4/6
f 161/4/6 159/4/6 162/4/6
f 151/4/6 161/4/6 163/4/6
f 163/4/6 161/4/6 164/4/6
f 157/1/6 158/1/6 165/1/6
f 153/1/6 155/1/6 165/1/6
f 155/1/6 157/1/6 165/1/6
f 165/1/6 158/1/6 166/1/6
f 169/3/6 170/3/6 172/3/6
f 171/3/6 172/3/6 174/3/6
f 167/2/6 168/2/6 175/2/6
f 175/2/6 168/2/6 176/2/6
f 176/2/6 168/2/6 177/2/6
f 177/2/6 168/2/6 178/2/6
f 173/3/6 174/3/6 179/3/6
f 172/3/6 170/3/6 180/3/6
f 179/3/6 174/3/6 180/3/6
f 174/3/6 172/3/6 180/3/6
