# MagicaVoxel @ Ephtracy

# group
o 

# material
mtllib piece of wall3.mtl
usemtl palette

# normals
vn -1 0 0
vn 1 0 0
vn 0 0 1
vn 0 0 -1
vn 0 -1 0
vn 0 1 0

# texcoords
vt 0.849609 0.5
vt 0.880859 0.5
vt 0.943359 0.5
vt 0.974609 0.5

# verts
v 0 0 0
v 0 0 -0.8
v 0 0 -0.9
v 0 0 -1.8
v 0 0 -1.9
v 0 0 -2.6
v 0 0.4 0
v 0 0.4 -0.8
v 0 0.4 -0.9
v 0 0.4 -1.8
v 0 0.4 -1.9
v 0 0.4 -2.6
v 0 0.5 0
v 0 0.5 -0.4
v 0 0.5 -0.5
v 0 0.5 -1.2
v 0 0.5 -1.3
v 0 0.5 -2.2
v 0 0.5 -2.3
v 0 0.5 -2.6
v 0 0.9 0
v 0 0.9 -0.4
v 0 0.9 -0.5
v 0 0.9 -1.2
v 0 0.9 -1.3
v 0 0.9 -2.2
v 0 0.9 -2.3
v 0 0.9 -2.6
v 0 1 -0.6
v 0 1 -0.8
v 0 1 -0.9
v 0 1 -1.7
v 0 1 -1.8
v 0 1 -2.2
v 0 1.4 -0.6
v 0 1.4 -0.8
v 0 1.4 -0.9
v 0 1.4 -1.7
v 0 1.4 -1.8
v 0 1.4 -2.2
v 0.1 0 -0.8
v 0.1 0 -0.9
v 0.1 0 -1.8
v 0.1 0 -1.9
v 0.1 0.4 0
v 0.1 0.4 -0.8
v 0.1 0.4 -0.9
v 0.1 0.4 -1.8
v 0.1 0.4 -1.9
v 0.1 0.4 -2.6
v 0.1 0.5 0
v 0.1 0.5 -0.4
v 0.1 0.5 -0.5
v 0.1 0.5 -1.2
v 0.1 0.5 -1.3
v 0.1 0.5 -2.2
v 0.1 0.5 -2.3
v 0.1 0.5 -2.6
v 0.1 0.9 0
v 0.1 0.9 -0.4
v 0.1 0.9 -0.5
v 0.1 0.9 -1.2
v 0.1 0.9 -1.3
v 0.1 0.9 -2.1
v 0.1 0.9 -2.2
v 0.1 0.9 -2.3
v 0.1 1 0
v 0.1 1 -0.6
v 0.1 1 -0.8
v 0.1 1 -0.9
v 0.1 1 -1.7
v 0.1 1 -1.8
v 0.1 1 -2.1
v 0.1 1.4 -0.8
v 0.1 1.4 -0.9
v 0.1 1.4 -1.7
v 0.1 1.4 -1.8
v 0.2 0.9 -2.1
v 0.2 0.9 -2.2
v 0.2 0.9 -2.3
v 0.2 0.9 -2.6
v 0.2 1 -2.1
v 0.2 1 -2.2
v 0.2 1 -2.6
v 0.4 0 -1.7
v 0.4 0 -1.8
v 0.4 0.4 -1.7
v 0.4 0.4 -1.8
v 0.4 0.5 -0.5
v 0.4 0.5 -1.2
v 0.4 0.5 -1.3
v 0.4 0.5 -1.4
v 0.4 0.5 -2.1
v 0.4 0.5 -2.2
v 0.4 0.8 -2.2
v 0.4 0.9 -0.5
v 0.4 0.9 -1.2
v 0.4 0.9 -1.3
v 0.4 0.9 -1.4
v 0.4 0.9 -2.1
v 0.4 0.9 -2.2
v 0.2 0 -1.7
v 0.2 0 -1.8
v 0.2 0.4 -1.7
v 0.2 0.4 -1.8
v 0.2 0.5 -0.5
v 0.2 0.5 -1.2
v 0.2 0.5 -1.3
v 0.2 0.5 -2.2
v 0.2 0.9 -0.5
v 0.2 0.9 -1.2
v 0.2 0.9 -1.3
v 0.2 0.9 -2.2
v 0.3 0.8 -2.2
v 0.3 0.8 -2.4
v 0.3 0.9 -2.2
v 0.3 0.9 -2.4
v 0.3 1 -2.2
v 0.3 1 -2.4
v 0.5 0 -0.7
v 0.5 0 -0.8
v 0.5 0 -1.7
v 0.5 0 -1.8
v 0.5 0.4 0
v 0.5 0.4 -0.7
v 0.5 0.4 -0.8
v 0.5 0.4 -1.7
v 0.5 0.4 -1.8
v 0.5 0.4 -2.6
v 0.5 0.5 0
v 0.5 0.5 -0.3
v 0.5 0.5 -0.4
v 0.5 0.5 -1.3
v 0.5 0.5 -1.4
v 0.5 0.5 -2.1
v 0.5 0.5 -2.2
v 0.5 0.5 -2.6
v 0.5 0.8 -2.2
v 0.5 0.9 0
v 0.5 0.9 -0.3
v 0.5 0.9 -0.4
v 0.5 0.9 -1.3
v 0.5 0.9 -1.4
v 0.5 0.9 -2.1
v 0.5 0.9 -2.4
v 0.5 0.9 -2.6
v 0.5 1 0
v 0.5 1 -0.6
v 0.5 1 -0.8
v 0.5 1 -0.9
v 0.5 1 -1.7
v 0.5 1 -1.8
v 0.5 1 -2.2
v 0.5 1 -2.4
v 0.5 1 -2.6
v 0.5 1.4 -0.8
v 0.5 1.4 -0.9
v 0.5 1.4 -1.7
v 0.5 1.4 -1.8
v 0.6 0 0
v 0.6 0 -0.7
v 0.6 0 -0.8
v 0.6 0 -1.7
v 0.6 0 -1.8
v 0.6 0 -2.6
v 0.6 0.4 0
v 0.6 0.4 -0.7
v 0.6 0.4 -0.8
v 0.6 0.4 -1.7
v 0.6 0.4 -1.8
v 0.6 0.4 -2.6
v 0.6 0.5 0
v 0.6 0.5 -0.3
v 0.6 0.5 -0.4
v 0.6 0.5 -1.3
v 0.6 0.5 -1.4
v 0.6 0.5 -2.1
v 0.6 0.5 -2.2
v 0.6 0.5 -2.6
v 0.6 0.8 -2.2
v 0.6 0.8 -2.4
v 0.6 0.9 0
v 0.6 0.9 -0.3
v 0.6 0.9 -0.4
v 0.6 0.9 -1.3
v 0.6 0.9 -1.4
v 0.6 0.9 -2.1
v 0.6 0.9 -2.4
v 0.6 0.9 -2.6
v 0.6 1 -0.6
v 0.6 1 -0.8
v 0.6 1 -0.9
v 0.6 1 -1.7
v 0.6 1 -1.8
v 0.6 1 -2.2
v 0.6 1.4 -0.6
v 0.6 1.4 -0.8
v 0.6 1.4 -0.9
v 0.6 1.4 -1.7
v 0.6 1.4 -1.8
v 0.6 1.4 -2.2
v 0 0 0
v 0 0.4 0
v 0 0.5 0
v 0 0.9 0
v 0.1 0.4 0
v 0.1 0.5 0
v 0.1 0.9 0
v 0.1 1 0
v 0.5 0 0
v 0.5 0.4 0
v 0.5 0.5 0
v 0.5 0.9 0
v 0.5 1 0
v 0.6 0 0
v 0.6 0.4 0
v 0.6 0.5 0
v 0.6 0.9 0
v 0.5 0.5 -0.4
v 0.5 0.9 -0.4
v 0.6 0.5 -0.4
v 0.6 0.9 -0.4
v 0 0.5 -0.5
v 0 0.9 -0.5
v 0.1 0.5 -0.5
v 0.1 0.9 -0.5
v 0 1 -0.6
v 0 1.4 -0.6
v 0.1 1 -0.6
v 0.5 1 -0.6
v 0.6 1 -0.6
v 0.6 1.4 -0.6
v 0.5 0 -0.8
v 0.5 0.4 -0.8
v 0.6 0 -0.8
v 0.6 0.4 -0.8
v 0 0 -0.9
v 0 0.4 -0.9
v 0 1 -0.9
v 0 1.4 -0.9
v 0.1 0 -0.9
v 0.1 0.4 -0.9
v 0.1 1 -0.9
v 0.1 1.4 -0.9
v 0.5 1 -0.9
v 0.5 1.4 -0.9
v 0.6 1 -0.9
v 0.6 1.4 -0.9
v 0.2 0.5 -1.2
v 0.2 0.9 -1.2
v 0.4 0.5 -1.2
v 0.4 0.9 -1.2
v 0 0.5 -1.3
v 0 0.9 -1.3
v 0.1 0.5 -1.3
v 0.1 0.9 -1.3
v 0.5 0.5 -1.4
v 0.5 0.9 -1.4
v 0.6 0.5 -1.4
v 0.6 0.9 -1.4
v 0 1 -1.8
v 0 1.4 -1.8
v 0.1 1 -1.8
v 0.1 1.4 -1.8
v 0.2 0 -1.8
v 0.2 0.4 -1.8
v 0.4 0 -1.8
v 0.4 0.4 -1.8
v 0.5 0 -1.8
v 0.5 0.4 -1.8
v 0.5 1 -1.8
v 0.5 1.4 -1.8
v 0.6 0 -1.8
v 0.6 0.4 -1.8
v 0.6 1 -1.8
v 0.6 1.4 -1.8
v 0 0 -1.9
v 0 0.4 -1.9
v 0.1 0 -1.9
v 0.1 0.4 -1.9
v 0.2 0.5 -2.2
v 0.2 0.9 -2.2
v 0.3 0.8 -2.2
v 0.3 0.9 -2.2
v 0.4 0.5 -2.2
v 0.4 0.8 -2.2
v 0.5 0.5 -2.2
v 0.5 0.8 -2.2
v 0.6 0.5 -2.2
v 0.6 0.8 -2.2
v 0 0.5 -2.3
v 0 0.9 -2.3
v 0.1 0.5 -2.3
v 0.1 0.9 -2.3
v 0.3 0.8 -2.4
v 0.3 0.9 -2.4
v 0.3 1 -2.4
v 0.5 0.9 -2.4
v 0.5 1 -2.4
v 0.6 0.8 -2.4
v 0.6 0.9 -2.4
v 0.5 0.5 -0.3
v 0.5 0.9 -0.3
v 0.6 0.5 -0.3
v 0.6 0.9 -0.3
v 0 0.5 -0.4
v 0 0.9 -0.4
v 0.1 0.5 -0.4
v 0.1 0.9 -0.4
v 0.2 0.5 -0.5
v 0.2 0.9 -0.5
v 0.4 0.5 -0.5
v 0.4 0.9 -0.5
v 0.5 0 -0.7
v 0.5 0.4 -0.7
v 0.6 0 -0.7
v 0.6 0.4 -0.7
v 0 0 -0.8
v 0 0.4 -0.8
v 0 1 -0.8
v 0 1.4 -0.8
v 0.1 0 -0.8
v 0.1 0.4 -0.8
v 0.1 1 -0.8
v 0.1 1.4 -0.8
v 0.5 1 -0.8
v 0.5 1.4 -0.8
v 0.6 1 -0.8
v 0.6 1.4 -0.8
v 0 0.5 -1.2
v 0 0.9 -1.2
v 0.1 0.5 -1.2
v 0.1 0.9 -1.2
v 0.2 0.5 -1.3
v 0.2 0.9 -1.3
v 0.4 0.5 -1.3
v 0.4 0.9 -1.3
v 0.5 0.5 -1.3
v 0.5 0.9 -1.3
v 0.6 0.5 -1.3
v 0.6 0.9 -1.3
v 0 1 -1.7
v 0 1.4 -1.7
v 0.1 1 -1.7
v 0.1 1.4 -1.7
v 0.2 0 -1.7
v 0.2 0.4 -1.7
v 0.4 0 -1.7
v 0.4 0.4 -1.7
v 0.5 0 -1.7
v 0.5 0.4 -1.7
v 0.5 1 -1.7
v 0.5 1.4 -1.7
v 0.6 0 -1.7
v 0.6 0.4 -1.7
v 0.6 1 -1.7
v 0.6 1.4 -1.7
v 0 0 -1.8
v 0 0.4 -1.8
v 0.1 0 -1.8
v 0.1 0.4 -1.8
v 0.1 0.9 -2.1
v 0.1 1 -2.1
v 0.2 0.9 -2.1
v 0.2 1 -2.1
v 0.5 0.5 -2.1
v 0.5 0.9 -2.1
v 0.6 0.5 -2.1
v 0.6 0.9 -2.1
v 0 0.5 -2.2
v 0 0.9 -2.2
v 0 1 -2.2
v 0 1.4 -2.2
v 0.1 0.5 -2.2
v 0.1 0.9 -2.2
v 0.2 1 -2.2
v 0.3 0.9 -2.2
v 0.3 1 -2.2
v 0.4 0.8 -2.2
v 0.4 0.9 -2.2
v 0.5 0.8 -2.2
v 0.5 1 -2.2
v 0.6 1 -2.2
v 0.6 1.4 -2.2
v 0 0 -2.6
v 0 0.4 -2.6
v 0 0.5 -2.6
v 0 0.9 -2.6
v 0.1 0.4 -2.6
v 0.1 0.5 -2.6
v 0.2 0.9 -2.6
v 0.2 1 -2.6
v 0.5 0.4 -2.6
v 0.5 0.5 -2.6
v 0.5 0.9 -2.6
v 0.5 1 -2.6
v 0.6 0 -2.6
v 0.6 0.4 -2.6
v 0.6 0.5 -2.6
v 0.6 0.9 -2.6
v 0 0 0
v 0.5 0 0
v 0.6 0 0
v 0.4 0 -0.1
v 0.5 0 -0.1
v 0.4 0 -0.7
v 0.5 0 -0.7
v 0.6 0 -0.7
v 0 0 -0.8
v 0.1 0 -0.8
v 0.2 0 -0.8
v 0.4 0 -0.8
v 0.5 0 -0.8
v 0.6 0 -0.8
v 0 0 -0.9
v 0.1 0 -0.9
v 0.2 0 -0.9
v 0.2 0 -1.7
v 0.4 0 -1.7
v 0.5 0 -1.7
v 0.6 0 -1.7
v 0 0 -1.8
v 0.1 0 -1.8
v 0.2 0 -1.8
v 0.4 0 -1.8
v 0.5 0 -1.8
v 0.6 0 -1.8
v 0 0 -1.9
v 0.1 0 -1.9
v 0.2 0 -1.9
v 0.1 0 -2.5
v 0.2 0 -2.5
v 0 0 -2.6
v 0.6 0 -2.6
v 0.2 0.4 -1.7
v 0.4 0.4 -1.7
v 0.2 0.4 -1.8
v 0.4 0.4 -1.8
v 0 0.5 0
v 0.1 0.5 0
v 0.5 0.5 0
v 0.6 0.5 0
v 0.5 0.5 -0.3
v 0.6 0.5 -0.3
v 0 0.5 -0.4
v 0.1 0.5 -0.4
v 0.5 0.5 -0.4
v 0.6 0.5 -0.4
v 0 0.5 -0.5
v 0.1 0.5 -0.5
v 0 0.5 -1.2
v 0.1 0.5 -1.2
v 0 0.5 -1.3
v 0.1 0.5 -1.3
v 0.5 0.5 -1.3
v 0.6 0.5 -1.3
v 0.5 0.5 -1.4
v 0.6 0.5 -1.4
v 0.5 0.5 -2.1
v 0.6 0.5 -2.1
v 0 0.5 -2.2
v 0.1 0.5 -2.2
v 0.5 0.5 -2.2
v 0.6 0.5 -2.2
v 0 0.5 -2.3
v 0.1 0.5 -2.3
v 0 0.5 -2.6
v 0.1 0.5 -2.6
v 0.5 0.5 -2.6
v 0.6 0.5 -2.6
v 0.2 0.9 -0.5
v 0.4 0.9 -0.5
v 0.2 0.9 -1.2
v 0.4 0.9 -1.2
v 0.2 0.9 -1.3
v 0.4 0.9 -1.3
v 0.4 0.9 -1.4
v 0.4 0.9 -2.1
v 0.2 0.9 -2.2
v 0.3 0.9 -2.2
v 0.4 0.9 -2.2
v 0 1 -0.6
v 0.1 1 -0.6
v 0.5 1 -0.6
v 0.6 1 -0.6
v 0 1 -0.8
v 0.1 1 -0.8
v 0.5 1 -0.8
v 0.6 1 -0.8
v 0 1 -0.9
v 0.1 1 -0.9
v 0.5 1 -0.9
v 0.6 1 -0.9
v 0 1 -1.7
v 0.1 1 -1.7
v 0.5 1 -1.7
v 0.6 1 -1.7
v 0 1 -1.8
v 0.1 1 -1.8
v 0.5 1 -1.8
v 0.6 1 -1.8
v 0.1 1 -2.1
v 0.2 1 -2.1
v 0 1 -2.2
v 0.2 1 -2.2
v 0.5 1 -2.2
v 0.6 1 -2.2
v 0 0.4 0
v 0.1 0.4 0
v 0.5 0.4 0
v 0.6 0.4 0
v 0.5 0.4 -0.7
v 0.6 0.4 -0.7
v 0 0.4 -0.8
v 0.1 0.4 -0.8
v 0.5 0.4 -0.8
v 0.6 0.4 -0.8
v 0 0.4 -0.9
v 0.1 0.4 -0.9
v 0.5 0.4 -1.7
v 0.6 0.4 -1.7
v 0 0.4 -1.8
v 0.1 0.4 -1.8
v 0.5 0.4 -1.8
v 0.6 0.4 -1.8
v 0 0.4 -1.9
v 0.1 0.4 -1.9
v 0 0.4 -2.6
v 0.1 0.4 -2.6
v 0.5 0.4 -2.6
v 0.6 0.4 -2.6
v 0.2 0.5 -0.5
v 0.4 0.5 -0.5
v 0.2 0.5 -1.2
v 0.4 0.5 -1.2
v 0.2 0.5 -1.3
v 0.4 0.5 -1.3
v 0.4 0.5 -1.4
v 0.4 0.5 -2.1
v 0.2 0.5 -2.2
v 0.4 0.5 -2.2
v 0.3 0.8 -2.2
v 0.4 0.8 -2.2
v 0.5 0.8 -2.2
v 0.6 0.8 -2.2
v 0.3 0.8 -2.4
v 0.6 0.8 -2.4
v 0 0.9 0
v 0.1 0.9 0
v 0.5 0.9 0
v 0.6 0.9 0
v 0.5 0.9 -0.3
v 0.6 0.9 -0.3
v 0 0.9 -0.4
v 0.1 0.9 -0.4
v 0.5 0.9 -0.4
v 0.6 0.9 -0.4
v 0 0.9 -0.5
v 0.1 0.9 -0.5
v 0 0.9 -1.2
v 0.1 0.9 -1.2
v 0 0.9 -1.3
v 0.1 0.9 -1.3
v 0.5 0.9 -1.3
v 0.6 0.9 -1.3
v 0.5 0.9 -1.4
v 0.6 0.9 -1.4
v 0.1 0.9 -2.1
v 0.2 0.9 -2.1
v 0.5 0.9 -2.1
v 0.6 0.9 -2.1
v 0 0.9 -2.2
v 0.1 0.9 -2.2
v 0.2 0.9 -2.2
v 0 0.9 -2.3
v 0.1 0.9 -2.3
v 0.2 0.9 -2.3
v 0.5 0.9 -2.4
v 0.6 0.9 -2.4
v 0 0.9 -2.6
v 0.2 0.9 -2.6
v 0.5 0.9 -2.6
v 0.6 0.9 -2.6
v 0.1 1 0
v 0.5 1 0
v 0.1 1 -0.6
v 0.5 1 -0.6
v 0.2 1 -2.2
v 0.3 1 -2.2
v 0.3 1 -2.4
v 0.5 1 -2.4
v 0.2 1 -2.6
v 0.5 1 -2.6
v 0 1.4 -0.6
v 0.6 1.4 -0.6
v 0 1.4 -0.8
v 0.1 1.4 -0.8
v 0.5 1.4 -0.8
v 0.6 1.4 -0.8
v 0 1.4 -0.9
v 0.1 1.4 -0.9
v 0.5 1.4 -0.9
v 0.6 1.4 -0.9
v 0 1.4 -1.7
v 0.1 1.4 -1.7
v 0.5 1.4 -1.7
v 0.6 1.4 -1.7
v 0 1.4 -1.8
v 0.1 1.4 -1.8
v 0.5 1.4 -1.8
v 0.6 1.4 -1.8
v 0 1.4 -2.2
v 0.6 1.4 -2.2

# faces
f 7/3/1 2/3/1 1/3/1
f 8/3/1 2/3/1 7/3/1
f 9/4/1 4/4/1 3/4/1
f 10/4/1 4/4/1 9/4/1
f 11/3/1 6/3/1 5/3/1
f 12/3/1 6/3/1 11/3/1
f 21/4/1 14/4/1 13/4/1
f 22/4/1 14/4/1 21/4/1
f 23/4/1 16/4/1 15/4/1
f 24/4/1 16/4/1 23/4/1
f 25/4/1 18/4/1 17/4/1
f 26/4/1 18/4/1 25/4/1
f 27/4/1 20/4/1 19/4/1
f 28/4/1 20/4/1 27/4/1
f 35/3/1 30/3/1 29/3/1
f 36/3/1 30/3/1 35/3/1
f 37/4/1 32/4/1 31/4/1
f 38/4/1 32/4/1 37/4/1
f 39/3/1 34/3/1 33/3/1
f 40/3/1 34/3/1 39/3/1
f 46/2/1 42/2/1 41/2/1
f 47/2/1 42/2/1 46/2/1
f 48/2/1 44/2/1 43/2/1
f 49/2/1 44/2/1 48/2/1
f 51/2/1 47/2/1 46/2/1
f 51/2/1 50/2/1 49/2/1
f 51/2/1 49/2/1 48/2/1
f 51/2/1 48/2/1 47/2/1
f 51/2/1 46/2/1 45/2/1
f 52/2/1 50/2/1 51/2/1
f 53/2/1 50/2/1 52/2/1
f 54/2/1 50/2/1 53/2/1
f 55/2/1 50/2/1 54/2/1
f 56/2/1 50/2/1 55/2/1
f 57/2/1 50/2/1 56/2/1
f 58/2/1 50/2/1 57/2/1
f 60/2/1 53/2/1 52/2/1
f 61/2/1 53/2/1 60/2/1
f 62/2/1 55/2/1 54/2/1
f 63/2/1 55/2/1 62/2/1
f 65/2/1 57/2/1 56/2/1
f 66/2/1 57/2/1 65/2/1
f 67/2/1 61/2/1 60/2/1
f 67/2/1 64/2/1 63/2/1
f 67/2/1 60/2/1 59/2/1
f 67/2/1 63/2/1 62/2/1
f 67/2/1 62/2/1 61/2/1
f 68/2/1 64/2/1 67/2/1
f 69/2/1 64/2/1 68/2/1
f 70/2/1 64/2/1 69/2/1
f 71/2/1 64/2/1 70/2/1
f 72/2/1 64/2/1 71/2/1
f 73/2/1 64/2/1 72/2/1
f 74/2/1 70/2/1 69/2/1
f 75/2/1 70/2/1 74/2/1
f 76/2/1 72/2/1 71/2/1
f 77/2/1 72/2/1 76/2/1
f 82/2/1 79/2/1 78/2/1
f 82/2/1 81/2/1 80/2/1
f 82/2/1 80/2/1 79/2/1
f 83/2/1 81/2/1 82/2/1
f 84/2/1 81/2/1 83/2/1
f 87/2/1 86/2/1 85/2/1
f 88/2/1 86/2/1 87/2/1
f 95/2/1 94/2/1 93/2/1
f 96/4/1 90/4/1 89/4/1
f 97/4/1 90/4/1 96/4/1
f 98/2/1 92/2/1 91/2/1
f 99/4/1 93/4/1 92/4/1
f 99/2/1 92/2/1 98/2/1
f 100/2/1 95/2/1 93/2/1
f 100/4/1 93/4/1 99/4/1
f 101/2/1 95/2/1 100/2/1
f 102/4/2 103/4/2 104/4/2
f 104/4/2 103/4/2 105/4/2
f 106/4/2 107/4/2 110/4/2
f 110/4/2 107/4/2 111/4/2
f 108/4/2 109/4/2 112/4/2
f 112/4/2 109/4/2 113/4/2
f 114/4/2 115/4/2 116/4/2
f 116/4/2 115/4/2 117/4/2
f 116/2/2 117/2/2 118/2/2
f 118/2/2 117/2/2 119/2/2
f 120/2/2 121/2/2 125/2/2
f 125/2/2 121/2/2 126/2/2
f 122/2/2 123/2/2 127/2/2
f 127/2/2 123/2/2 128/2/2
f 125/2/2 126/2/2 130/2/2
f 128/2/2 129/2/2 130/2/2
f 127/2/2 128/2/2 130/2/2
f 126/2/2 127/2/2 130/2/2
f 124/2/2 125/2/2 130/2/2
f 130/2/2 129/2/2 131/2/2
f 131/2/2 129/2/2 132/2/2
f 132/2/2 129/2/2 133/2/2
f 133/2/2 129/2/2 134/2/2
f 134/2/2 129/2/2 135/2/2
f 135/2/2 129/2/2 136/2/2
f 136/2/2 129/2/2 137/2/2
f 135/2/2 136/2/2 138/2/2
f 131/2/2 132/2/2 140/2/2
f 140/2/2 132/2/2 141/2/2
f 133/2/2 134/2/2 142/2/2
f 142/2/2 134/2/2 143/2/2
f 135/2/2 138/2/2 144/2/2
f 143/2/2 144/2/2 147/2/2
f 140/2/2 141/2/2 147/2/2
f 142/2/2 143/2/2 147/2/2
f 139/2/2 140/2/2 147/2/2
f 141/2/2 142/2/2 147/2/2
f 147/2/2 144/2/2 148/2/2
f 148/2/2 144/2/2 149/2/2
f 149/2/2 144/2/2 150/2/2
f 150/2/2 144/2/2 151/2/2
f 151/2/2 144/2/2 152/2/2
f 144/2/2 138/2/2 153/2/2
f 152/2/2 144/2/2 153/2/2
f 145/2/2 146/2/2 154/2/2
f 154/2/2 146/2/2 155/2/2
f 149/2/2 150/2/2 156/2/2
f 156/2/2 150/2/2 157/2/2
f 151/2/2 152/2/2 158/2/2
f 158/2/2 152/2/2 159/2/2
f 160/4/2 161/4/2 166/4/2
f 166/4/2 161/4/2 167/4/2
f 162/4/2 163/4/2 168/4/2
f 168/4/2 163/4/2 169/4/2
f 164/3/2 165/3/2 170/3/2
f 170/3/2 165/3/2 171/3/2
f 178/4/2 179/4/2 180/4/2
f 180/4/2 179/4/2 181/4/2
f 172/3/2 173/3/2 182/3/2
f 182/3/2 173/3/2 183/3/2
f 174/4/2 175/4/2 184/4/2
f 184/4/2 175/4/2 185/4/2
f 176/4/2 177/4/2 186/4/2
f 186/4/2 177/4/2 187/4/2
f 181/4/2 179/4/2 188/4/2
f 188/4/2 179/4/2 189/4/2
f 190/3/2 191/3/2 196/3/2
f 196/3/2 191/3/2 197/3/2
f 192/4/2 193/4/2 198/4/2
f 198/4/2 193/4/2 199/4/2
f 194/3/2 195/3/2 200/3/2
f 200/3/2 195/3/2 201/3/2
f 206/3/3 203/3/3 202/3/3
f 207/4/3 205/4/3 204/4/3
f 208/4/3 205/4/3 207/4/3
f 210/3/3 206/3/3 202/3/3
f 211/2/3 207/2/3 206/2/3
f 211/3/3 206/3/3 210/3/3
f 212/4/3 208/4/3 207/4/3
f 212/2/3 207/2/3 211/2/3
f 213/2/3 209/2/3 208/2/3
f 213/4/3 208/4/3 212/4/3
f 214/2/3 209/2/3 213/2/3
f 215/4/3 211/4/3 210/4/3
f 216/4/3 211/4/3 215/4/3
f 217/3/3 213/3/3 212/3/3
f 218/3/3 213/3/3 217/3/3
f 221/4/3 220/4/3 219/4/3
f 222/4/3 220/4/3 221/4/3
f 225/4/3 224/4/3 223/4/3
f 226/4/3 224/4/3 225/4/3
f 229/3/3 228/3/3 227/3/3
f 230/3/3 228/3/3 229/3/3
f 231/3/3 228/3/3 230/3/3
f 232/3/3 228/3/3 231/3/3
f 235/4/3 234/4/3 233/4/3
f 236/4/3 234/4/3 235/4/3
f 241/4/3 238/4/3 237/4/3
f 242/4/3 238/4/3 241/4/3
f 243/4/3 240/4/3 239/4/3
f 244/4/3 240/4/3 243/4/3
f 247/4/3 246/4/3 245/4/3
f 248/4/3 246/4/3 247/4/3
f 251/2/3 250/2/3 249/2/3
f 252/2/3 250/2/3 251/2/3
f 255/4/3 254/4/3 253/4/3
f 256/4/3 254/4/3 255/4/3
f 259/4/3 258/4/3 257/4/3
f 260/4/3 258/4/3 259/4/3
f 263/3/3 262/3/3 261/3/3
f 264/3/3 262/3/3 263/3/3
f 267/3/3 266/3/3 265/3/3
f 268/3/3 266/3/3 267/3/3
f 273/3/3 270/3/3 269/3/3
f 274/3/3 270/3/3 273/3/3
f 275/3/3 272/3/3 271/3/3
f 276/3/3 272/3/3 275/3/3
f 279/3/3 278/3/3 277/3/3
f 280/3/3 278/3/3 279/3/3
f 283/4/3 282/4/3 281/4/3
f 284/4/3 282/4/3 283/4/3
f 285/4/3 283/4/3 281/4/3
f 286/4/3 283/4/3 285/4/3
f 289/4/3 288/4/3 287/4/3
f 290/4/3 288/4/3 289/4/3
f 293/4/3 292/4/3 291/4/3
f 294/4/3 292/4/3 293/4/3
f 298/4/3 296/4/3 295/4/3
f 298/2/3 297/2/3 296/2/3
f 299/2/3 297/2/3 298/2/3
f 300/4/3 298/4/3 295/4/3
f 301/4/3 298/4/3 300/4/3
f 302/3/4 303/3/4 304/3/4
f 304/3/4 303/3/4 305/3/4
f 306/4/4 307/4/4 308/4/4
f 308/4/4 307/4/4 309/4/4
f 310/2/4 311/2/4 312/2/4
f 312/2/4 311/2/4 313/2/4
f 314/4/4 315/4/4 316/4/4
f 316/4/4 315/4/4 317/4/4
f 318/3/4 319/3/4 322/3/4
f 322/3/4 319/3/4 323/3/4
f 320/3/4 321/3/4 324/3/4
f 324/3/4 321/3/4 325/3/4
f 326/3/4 327/3/4 328/3/4
f 328/3/4 327/3/4 329/3/4
f 330/4/4 331/4/4 332/4/4
f 332/4/4 331/4/4 333/4/4
f 334/2/4 335/2/4 336/2/4
f 336/2/4 335/2/4 337/2/4
f 338/4/4 339/4/4 340/4/4
f 340/4/4 339/4/4 341/4/4
f 342/4/4 343/4/4 344/4/4
f 344/4/4 343/4/4 345/4/4
f 346/4/4 347/4/4 348/4/4
f 348/4/4 347/4/4 349/4/4
f 350/4/4 351/4/4 354/4/4
f 354/4/4 351/4/4 355/4/4
f 352/4/4 353/4/4 356/4/4
f 356/4/4 353/4/4 357/4/4
f 358/4/4 359/4/4 360/4/4
f 360/4/4 359/4/4 361/4/4
f 362/2/4 363/2/4 364/2/4
f 364/2/4 363/2/4 365/2/4
f 366/4/4 367/4/4 368/4/4
f 368/4/4 367/4/4 369/4/4
f 370/4/4 371/4/4 374/4/4
f 374/4/4 371/4/4 375/4/4
f 372/3/4 373/3/4 376/3/4
f 376/3/4 373/3/4 378/3/4
f 377/2/4 378/2/4 380/2/4
f 379/2/4 380/2/4 381/2/4
f 378/3/4 373/3/4 382/3/4
f 381/2/4 380/2/4 382/2/4
f 380/2/4 378/2/4 382/2/4
f 382/3/4 373/3/4 383/3/4
f 383/3/4 373/3/4 384/3/4
f 385/3/4 386/3/4 389/3/4
f 387/4/4 388/4/4 390/4/4
f 390/4/4 388/4/4 391/4/4
f 385/3/4 389/3/4 393/3/4
f 389/2/4 390/2/4 393/2/4
f 390/4/4 391/4/4 394/4/4
f 393/2/4 390/2/4 394/2/4
f 391/2/4 392/2/4 395/2/4
f 394/4/4 391/4/4 395/4/4
f 395/2/4 392/2/4 396/2/4
f 385/3/4 393/3/4 397/3/4
f 397/3/4 393/3/4 398/3/4
f 394/4/4 395/4/4 399/4/4
f 399/4/4 395/4/4 400/4/4
f 404/3/5 402/3/5 401/3/5
f 405/4/5 403/4/5 402/4/5
f 405/3/5 402/3/5 404/3/5
f 406/3/5 404/3/5 401/3/5
f 406/4/5 405/4/5 404/4/5
f 407/4/5 403/4/5 405/4/5
f 407/4/5 405/4/5 406/4/5
f 408/4/5 403/4/5 407/4/5
f 409/3/5 406/3/5 401/3/5
f 410/3/5 406/3/5 409/3/5
f 411/3/5 406/3/5 410/3/5
f 412/2/5 407/2/5 406/2/5
f 412/3/5 406/3/5 411/3/5
f 413/2/5 407/2/5 412/2/5
f 416/2/5 411/2/5 410/2/5
f 417/4/5 413/4/5 412/4/5
f 417/4/5 414/4/5 413/4/5
f 417/2/5 411/2/5 416/2/5
f 417/4/5 412/4/5 411/4/5
f 418/4/5 416/4/5 415/4/5
f 418/4/5 414/4/5 417/4/5
f 418/4/5 417/4/5 416/4/5
f 419/4/5 414/4/5 418/4/5
f 420/4/5 414/4/5 419/4/5
f 421/4/5 414/4/5 420/4/5
f 422/4/5 418/4/5 415/4/5
f 423/4/5 418/4/5 422/4/5
f 424/4/5 418/4/5 423/4/5
f 425/2/5 420/2/5 419/2/5
f 426/2/5 420/2/5 425/2/5
f 429/2/5 424/2/5 423/2/5
f 430/3/5 426/3/5 425/3/5
f 430/3/5 427/3/5 426/3/5
f 430/2/5 424/2/5 429/2/5
f 430/3/5 425/3/5 424/3/5
f 431/3/5 429/3/5 428/3/5
f 431/4/5 430/4/5 429/4/5
f 432/3/5 427/3/5 430/3/5
f 432/4/5 430/4/5 431/4/5
f 433/3/5 431/3/5 428/3/5
f 433/3/5 432/3/5 431/3/5
f 434/3/5 427/3/5 432/3/5
f 434/3/5 432/3/5 433/3/5
f 437/2/5 436/2/5 435/2/5
f 438/2/5 436/2/5 437/2/5
f 443/3/5 442/3/5 441/3/5
f 444/3/5 442/3/5 443/3/5
f 445/4/5 440/4/5 439/4/5
f 446/4/5 440/4/5 445/4/5
f 451/4/5 450/4/5 449/4/5
f 452/4/5 450/4/5 451/4/5
f 455/4/5 448/4/5 447/4/5
f 456/4/5 448/4/5 455/4/5
f 459/4/5 458/4/5 457/4/5
f 460/4/5 458/4/5 459/4/5
f 461/4/5 454/4/5 453/4/5
f 462/4/5 454/4/5 461/4/5
f 467/4/5 466/4/5 465/4/5
f 468/4/5 466/4/5 467/4/5
f 469/4/5 464/4/5 463/4/5
f 470/4/5 464/4/5 469/4/5
f 473/2/5 472/2/5 471/2/5
f 474/2/5 472/2/5 473/2/5
f 477/2/5 476/2/5 475/2/5
f 478/2/5 477/2/5 475/2/5
f 479/2/5 478/2/5 475/2/5
f 480/2/5 478/2/5 479/2/5
f 481/2/5 478/2/5 480/2/5
f 486/3/5 483/3/5 482/3/5
f 487/3/5 483/3/5 486/3/5
f 488/3/5 485/3/5 484/3/5
f 489/3/5 485/3/5 488/3/5
f 494/4/5 491/4/5 490/4/5
f 495/4/5 491/4/5 494/4/5
f 496/4/5 493/4/5 492/4/5
f 497/4/5 493/4/5 496/4/5
f 502/3/5 499/3/5 498/3/5
f 504/3/5 502/3/5 498/3/5
f 504/3/5 503/3/5 502/3/5
f 505/3/5 503/3/5 504/3/5
f 506/3/5 501/3/5 500/3/5
f 507/3/5 501/3/5 506/3/5
f 510/4/6 511/4/6 512/4/6
f 512/4/6 511/4/6 513/4/6
f 508/3/6 509/3/6 514/3/6
f 514/3/6 509/3/6 515/3/6
f 516/4/6 517/4/6 520/4/6
f 520/4/6 517/4/6 521/4/6
f 518/4/6 519/4/6 522/4/6
f 522/4/6 519/4/6 523/4/6
f 526/3/6 527/3/6 528/3/6
f 528/3/6 527/3/6 529/3/6
f 524/3/6 525/3/6 530/3/6
f 530/3/6 525/3/6 531/3/6
f 532/2/6 533/2/6 534/2/6
f 534/2/6 533/2/6 535/2/6
f 536/2/6 537/2/6 538/2/6
f 536/2/6 538/2/6 539/2/6
f 536/2/6 539/2/6 540/2/6
f 540/2/6 539/2/6 541/2/6
f 542/4/6 543/4/6 546/4/6
f 544/4/6 545/4/6 546/4/6
f 543/4/6 544/4/6 546/4/6
f 546/4/6 545/4/6 547/4/6
f 550/3/6 551/3/6 552/3/6
f 552/3/6 551/3/6 553/3/6
f 548/4/6 549/4/6 554/4/6
f 554/4/6 549/4/6 555/4/6
f 558/4/6 559/4/6 560/4/6
f 560/4/6 559/4/6 561/4/6
f 556/4/6 557/4/6 564/4/6
f 564/4/6 557/4/6 565/4/6
f 562/4/6 563/4/6 568/4/6
f 566/4/6 567/4/6 570/4/6
f 570/4/6 567/4/6 571/4/6
f 568/4/6 569/4/6 572/4/6
f 562/4/6 568/4/6 572/4/6
f 572/4/6 569/4/6 573/4/6
f 573/4/6 569/4/6 574/4/6
f 573/2/6 574/2/6 576/2/6
f 576/2/6 574/2/6 577/2/6
f 576/4/6 577/4/6 580/4/6
f 575/4/6 576/4/6 580/4/6
f 580/4/6 577/4/6 581/4/6
f 578/4/6 579/4/6 582/4/6
f 582/4/6 579/4/6 583/4/6
f 584/2/6 585/2/6 586/2/6
f 586/2/6 585/2/6 587/2/6
f 588/2/6 589/2/6 590/2/6
f 588/2/6 590/2/6 592/2/6
f 590/2/6 591/2/6 592/2/6
f 592/2/6 591/2/6 593/2/6
f 594/3/6 595/3/6 596/3/6
f 596/3/6 595/3/6 597/3/6
f 597/3/6 595/3/6 598/3/6
f 598/3/6 595/3/6 599/3/6
f 597/2/6 598/2/6 601/2/6
f 601/2/6 598/2/6 602/2/6
f 600/4/6 601/4/6 604/4/6
f 602/4/6 603/4/6 604/4/6
f 601/4/6 602/4/6 604/4/6
f 604/4/6 603/4/6 605/4/6
f 605/4/6 603/4/6 606/4/6
f 606/4/6 603/4/6 607/4/6
f 605/2/6 606/2/6 609/2/6
f 609/2/6 606/2/6 610/2/6
f 608/3/6 609/3/6 612/3/6
f 610/3/6 611/3/6 612/3/6
f 609/3/6 610/3/6 612/3/6
f 612/3/6 611/3/6 613/3/6
