# MagicaVoxel @ Ephtracy

# group
o 

# material
mtllib pointer.mtl
usemtl palette

# normals
vn -1 0 0
vn 1 0 0
vn 0 0 1
vn 0 0 -1
vn 0 -1 0
vn 0 1 0

# texcoords
vt 0.908203 0.5
vt 0.970703 0.5
vt 0.994141 0.5

# verts
v 0.2 3.3 -0.8
v 0.2 3.3 -1
v 0.2 3.8 -0.8
v 0.2 3.8 -1
v 0.8 1.5 -1.1
v 0.8 1.5 -1.5
v 0.8 4.3 -1.1
v 0.8 4.3 -1.5
v 0.9 1.5 -1
v 0.9 1.5 -1.1
v 0.9 1.5 -1.5
v 0.9 1.5 -1.6
v 0.9 3.3 -1
v 0.9 3.8 -1
v 0.9 4.3 -1
v 0.9 4.3 -1.1
v 0.9 4.3 -1.5
v 0.9 4.3 -1.6
v 0.9 4.4 -1.1
v 0.9 4.4 -1.5
v 1 4.4 -1.2
v 1 4.4 -1.4
v 1 4.5 -1.2
v 1 4.5 -1.4
v 1.4 2.8 -0.4
v 1.4 2.8 -1.1
v 1.4 2.8 -1.5
v 1.4 2.8 -2.5
v 1.4 2.9 -2.5
v 1.4 2.9 -2.6
v 1.4 3 -2.6
v 1.4 3 -2.7
v 1.4 3.1 -2.6
v 1.4 3.1 -2.7
v 1.4 3.2 -2.5
v 1.4 3.2 -2.6
v 1.4 3.3 -0.4
v 1.4 3.3 -0.8
v 1.4 3.3 -1
v 1.4 3.3 -1.1
v 1.4 3.3 -1.5
v 1.4 3.3 -2.5
v 1.4 3.8 -0.2
v 1.4 3.8 -0.8
v 1.4 3.8 -1
v 1.4 3.8 -1.1
v 1.4 3.8 -1.5
v 1.4 3.8 -2.3
v 1.4 3.9 -0.1
v 1.4 3.9 -0.2
v 1.4 4 0
v 1.4 4 -0.1
v 1.4 4.1 0
v 1.4 4.1 -0.1
v 1.4 4.2 -0.1
v 1.4 4.2 -0.2
v 1.4 4.3 -0.2
v 1.4 4.3 -1.1
v 1.4 4.3 -1.5
v 1.4 4.3 -2.3
v 1.2 4.4 -1.2
v 1.2 4.4 -1.4
v 1.2 4.5 -1.2
v 1.2 4.5 -1.4
v 1.3 1.5 -1
v 1.3 1.5 -1.1
v 1.3 1.5 -1.5
v 1.3 1.5 -1.6
v 1.3 3.3 -1
v 1.3 3.8 -1
v 1.3 4.3 -1
v 1.3 4.3 -1.1
v 1.3 4.3 -1.5
v 1.3 4.3 -1.6
v 1.3 4.4 -1.1
v 1.3 4.4 -1.5
v 1.4 1.5 -1.1
v 1.4 1.5 -1.5
v 1.4 2.8 -1.1
v 1.4 2.8 -1.5
v 1.4 3.3 -1.1
v 1.4 3.3 -1.5
v 1.4 3.8 -1.1
v 1.4 3.8 -1.5
v 1.6 2.8 -0.4
v 1.6 2.8 -2.5
v 1.6 2.9 -0.5
v 1.6 2.9 -0.6
v 1.6 2.9 -0.7
v 1.6 2.9 -0.8
v 1.6 2.9 -0.9
v 1.6 2.9 -1.1
v 1.6 2.9 -1.2
v 1.6 2.9 -1.3
v 1.6 2.9 -1.6
v 1.6 2.9 -1.7
v 1.6 2.9 -1.8
v 1.6 2.9 -1.9
v 1.6 2.9 -2
v 1.6 2.9 -2.1
v 1.6 2.9 -2.2
v 1.6 2.9 -2.3
v 1.6 2.9 -2.5
v 1.6 2.9 -2.6
v 1.6 3 -0.5
v 1.6 3 -0.6
v 1.6 3 -0.7
v 1.6 3 -0.8
v 1.6 3 -0.9
v 1.6 3 -1.1
v 1.6 3 -1.4
v 1.6 3 -1.5
v 1.6 3 -1.8
v 1.6 3 -1.9
v 1.6 3 -2
v 1.6 3 -2.1
v 1.6 3 -2.3
v 1.6 3 -2.4
v 1.6 3 -2.6
v 1.6 3 -2.7
v 1.6 3.1 -0.6
v 1.6 3.1 -0.7
v 1.6 3.1 -0.8
v 1.6 3.1 -0.9
v 1.6 3.1 -1.1
v 1.6 3.1 -1.2
v 1.6 3.1 -1.3
v 1.6 3.1 -1.4
v 1.6 3.1 -1.5
v 1.6 3.1 -1.8
v 1.6 3.1 -1.9
v 1.6 3.1 -2
v 1.6 3.1 -2.1
v 1.6 3.1 -2.2
v 1.6 3.1 -2.4
v 1.6 3.1 -2.5
v 1.6 3.1 -2.6
v 1.6 3.1 -2.7
v 1.6 3.2 -0.5
v 1.6 3.2 -0.7
v 1.6 3.2 -0.8
v 1.6 3.2 -0.9
v 1.6 3.2 -1.1
v 1.6 3.2 -1.3
v 1.6 3.2 -1.4
v 1.6 3.2 -1.6
v 1.6 3.2 -1.7
v 1.6 3.2 -1.8
v 1.6 3.2 -1.9
v 1.6 3.2 -2
v 1.6 3.2 -2.1
v 1.6 3.2 -2.4
v 1.6 3.2 -2.5
v 1.6 3.2 -2.6
v 1.6 3.3 -0.4
v 1.6 3.3 -0.8
v 1.6 3.3 -1
v 1.6 3.3 -2.5
v 1.6 3.8 -0.2
v 1.6 3.8 -0.8
v 1.6 3.8 -1
v 1.6 3.8 -2.3
v 1.6 3.9 -0.1
v 1.6 3.9 -0.2
v 1.6 3.9 -0.3
v 1.6 3.9 -0.4
v 1.6 3.9 -0.5
v 1.6 3.9 -0.8
v 1.6 3.9 -0.9
v 1.6 3.9 -1
v 1.6 3.9 -1.2
v 1.6 3.9 -1.4
v 1.6 3.9 -1.6
v 1.6 3.9 -1.8
v 1.6 3.9 -1.9
v 1.6 3.9 -2
v 1.6 3.9 -2.1
v 1.6 3.9 -2.2
v 1.6 4 0
v 1.6 4 -0.1
v 1.6 4 -0.4
v 1.6 4 -0.5
v 1.6 4 -0.6
v 1.6 4 -0.7
v 1.6 4 -0.8
v 1.6 4 -0.9
v 1.6 4 -1.1
v 1.6 4 -1.2
v 1.6 4 -1.3
v 1.6 4 -1.4
v 1.6 4 -1.6
v 1.6 4.1 0
v 1.6 4.1 -0.1
v 1.6 4.1 -0.5
v 1.6 4.1 -0.6
v 1.6 4.1 -0.7
v 1.6 4.1 -0.8
v 1.6 4.1 -1
v 1.6 4.1 -1.1
v 1.6 4.1 -1.2
v 1.6 4.1 -1.3
v 1.6 4.1 -1.4
v 1.6 4.1 -1.6
v 1.6 4.1 -1.9
v 1.6 4.1 -2
v 1.6 4.2 -0.1
v 1.6 4.2 -0.2
v 1.6 4.2 -0.3
v 1.6 4.2 -0.6
v 1.6 4.2 -0.7
v 1.6 4.2 -1.1
v 1.6 4.2 -1.2
v 1.6 4.2 -1.4
v 1.6 4.2 -1.6
v 1.6 4.2 -1.8
v 1.6 4.2 -2.1
v 1.6 4.2 -2.2
v 1.6 4.3 -0.2
v 1.6 4.3 -2.3
v 2.3 3.3 -0.8
v 2.3 3.3 -1
v 2.3 3.4 -0.8
v 2.3 3.4 -1
v 2.3 3.7 -0.8
v 2.3 3.7 -1
v 2.3 3.8 -0.8
v 2.3 3.8 -1
v 2.4 3.4 -0.8
v 2.4 3.4 -1
v 2.4 3.5 -0.8
v 2.4 3.5 -1
v 2.4 3.6 -0.8
v 2.4 3.6 -1
v 2.4 3.7 -0.8
v 2.4 3.7 -1
v 2.5 3.5 -0.8
v 2.5 3.5 -1
v 2.5 3.6 -0.8
v 2.5 3.6 -1
v 1.4 4 0
v 1.4 4.1 0
v 1.6 4 0
v 1.6 4.1 0
v 1.4 3.9 -0.1
v 1.4 4 -0.1
v 1.4 4.1 -0.1
v 1.4 4.2 -0.1
v 1.6 3.9 -0.1
v 1.6 4 -0.1
v 1.6 4.1 -0.1
v 1.6 4.2 -0.1
v 1.4 3.8 -0.2
v 1.4 3.9 -0.2
v 1.4 4.2 -0.2
v 1.4 4.3 -0.2
v 1.6 3.8 -0.2
v 1.6 3.9 -0.2
v 1.6 4.2 -0.2
v 1.6 4.3 -0.2
v 1.4 2.8 -0.4
v 1.4 3.3 -0.4
v 1.6 2.8 -0.4
v 1.6 3.3 -0.4
v 0.2 3.3 -0.8
v 0.2 3.8 -0.8
v 0.3 3.4 -0.8
v 0.3 3.7 -0.8
v 0.4 3.4 -0.8
v 0.4 3.5 -0.8
v 0.4 3.6 -0.8
v 0.4 3.7 -0.8
v 0.5 3.4 -0.8
v 0.5 3.5 -0.8
v 0.5 3.6 -0.8
v 0.5 3.7 -0.8
v 0.6 3.4 -0.8
v 0.6 3.5 -0.8
v 0.6 3.6 -0.8
v 0.7 3.4 -0.8
v 0.7 3.5 -0.8
v 0.8 3.5 -0.8
v 0.8 3.6 -0.8
v 0.9 3.4 -0.8
v 0.9 3.5 -0.8
v 0.9 3.6 -0.8
v 0.9 3.7 -0.8
v 1 3.5 -0.8
v 1 3.6 -0.8
v 1 3.7 -0.8
v 1.1 3.4 -0.8
v 1.1 3.6 -0.8
v 1.3 3.4 -0.8
v 1.3 3.5 -0.8
v 1.4 3.3 -0.8
v 1.4 3.4 -0.8
v 1.4 3.5 -0.8
v 1.4 3.7 -0.8
v 1.4 3.8 -0.8
v 1.5 3.4 -0.8
v 1.5 3.5 -0.8
v 1.5 3.6 -0.8
v 1.5 3.7 -0.8
v 1.6 3.3 -0.8
v 1.6 3.4 -0.8
v 1.6 3.6 -0.8
v 1.6 3.8 -0.8
v 1.9 3.5 -0.8
v 1.9 3.6 -0.8
v 2 3.5 -0.8
v 2 3.6 -0.8
v 2 3.7 -0.8
v 2.1 3.4 -0.8
v 2.1 3.5 -0.8
v 2.1 3.6 -0.8
v 2.1 3.7 -0.8
v 2.2 3.4 -0.8
v 2.2 3.5 -0.8
v 2.2 3.7 -0.8
v 2.3 3.3 -0.8
v 2.3 3.4 -0.8
v 2.3 3.7 -0.8
v 2.3 3.8 -0.8
v 2.4 3.4 -0.8
v 2.4 3.5 -0.8
v 2.4 3.6 -0.8
v 2.4 3.7 -0.8
v 2.5 3.5 -0.8
v 2.5 3.6 -0.8
v 0.9 1.5 -1
v 0.9 3.3 -1
v 0.9 3.8 -1
v 0.9 4.3 -1
v 1.3 1.5 -1
v 1.3 3.3 -1
v 1.3 3.8 -1
v 1.3 4.3 -1
v 0.8 1.5 -1.1
v 0.8 4.3 -1.1
v 0.9 1.5 -1.1
v 0.9 4.3 -1.1
v 0.9 4.4 -1.1
v 1.3 1.5 -1.1
v 1.3 4.3 -1.1
v 1.3 4.4 -1.1
v 1.4 1.5 -1.1
v 1.4 2.8 -1.1
v 1.4 3.3 -1.1
v 1.4 3.8 -1.1
v 1.4 4.3 -1.1
v 1 4.4 -1.2
v 1 4.5 -1.2
v 1.2 4.4 -1.2
v 1.2 4.5 -1.2
v 0.2 3.3 -1
v 0.2 3.8 -1
v 0.9 3.3 -1
v 0.9 3.8 -1
v 1.3 3.3 -1
v 1.3 3.8 -1
v 1.4 3.3 -1
v 1.4 3.8 -1
v 1.6 3.3 -1
v 1.6 3.8 -1
v 2.3 3.3 -1
v 2.3 3.4 -1
v 2.3 3.7 -1
v 2.3 3.8 -1
v 2.4 3.4 -1
v 2.4 3.5 -1
v 2.4 3.6 -1
v 2.4 3.7 -1
v 2.5 3.5 -1
v 2.5 3.6 -1
v 1 4.4 -1.4
v 1 4.5 -1.4
v 1.2 4.4 -1.4
v 1.2 4.5 -1.4
v 0.8 1.5 -1.5
v 0.8 4.3 -1.5
v 0.9 1.5 -1.5
v 0.9 4.3 -1.5
v 0.9 4.4 -1.5
v 1.3 1.5 -1.5
v 1.3 4.3 -1.5
v 1.3 4.4 -1.5
v 1.4 1.5 -1.5
v 1.4 2.8 -1.5
v 1.4 3.3 -1.5
v 1.4 3.8 -1.5
v 1.4 4.3 -1.5
v 0.9 1.5 -1.6
v 0.9 4.3 -1.6
v 1.3 1.5 -1.6
v 1.3 4.3 -1.6
v 1.4 3.8 -2.3
v 1.4 4.3 -2.3
v 1.6 3.8 -2.3
v 1.6 4.3 -2.3
v 1.4 2.8 -2.5
v 1.4 2.9 -2.5
v 1.4 3.2 -2.5
v 1.4 3.3 -2.5
v 1.6 2.8 -2.5
v 1.6 2.9 -2.5
v 1.6 3.2 -2.5
v 1.6 3.3 -2.5
v 1.4 2.9 -2.6
v 1.4 3 -2.6
v 1.4 3.1 -2.6
v 1.4 3.2 -2.6
v 1.6 2.9 -2.6
v 1.6 3 -2.6
v 1.6 3.1 -2.6
v 1.6 3.2 -2.6
v 1.4 3 -2.7
v 1.4 3.1 -2.7
v 1.6 3 -2.7
v 1.6 3.1 -2.7
v 0.9 1.5 -1
v 1.3 1.5 -1
v 0.8 1.5 -1.1
v 0.9 1.5 -1.1
v 1.3 1.5 -1.1
v 1.4 1.5 -1.1
v 0.8 1.5 -1.5
v 0.9 1.5 -1.5
v 1.3 1.5 -1.5
v 1.4 1.5 -1.5
v 0.9 1.5 -1.6
v 1.3 1.5 -1.6
v 1.4 2.8 -0.4
v 1.6 2.8 -0.4
v 1.4 2.8 -1.1
v 1.4 2.8 -1.5
v 1.4 2.8 -2.5
v 1.6 2.8 -2.5
v 1.4 2.9 -2.5
v 1.6 2.9 -2.5
v 1.4 2.9 -2.6
v 1.6 2.9 -2.6
v 1.4 3 -2.6
v 1.6 3 -2.6
v 1.4 3 -2.7
v 1.6 3 -2.7
v 0.2 3.3 -0.8
v 1.4 3.3 -0.8
v 1.6 3.3 -0.8
v 2.3 3.3 -0.8
v 0.2 3.3 -1
v 0.9 3.3 -1
v 1.3 3.3 -1
v 1.4 3.3 -1
v 1.6 3.3 -1
v 2.3 3.3 -1
v 2.3 3.4 -0.8
v 2.4 3.4 -0.8
v 2.3 3.4 -1
v 2.4 3.4 -1
v 2.4 3.5 -0.8
v 2.5 3.5 -0.8
v 2.4 3.5 -1
v 2.5 3.5 -1
v 1.4 3.8 -0.2
v 1.6 3.8 -0.2
v 1.4 3.8 -0.8
v 1.6 3.8 -0.8
v 1.4 3.8 -1
v 1.6 3.8 -1
v 1.4 3.8 -1.1
v 1.4 3.8 -1.5
v 1.4 3.8 -2.3
v 1.6 3.8 -2.3
v 1.4 3.9 -0.1
v 1.6 3.9 -0.1
v 1.4 3.9 -0.2
v 1.6 3.9 -0.2
v 1.4 4 0
v 1.6 4 0
v 1.4 4 -0.1
v 1.6 4 -0.1
v 1.4 3.1 -2.6
v 1.6 3.1 -2.6
v 1.4 3.1 -2.7
v 1.6 3.1 -2.7
v 1.4 3.2 -2.5
v 1.6 3.2 -2.5
v 1.4 3.2 -2.6
v 1.6 3.2 -2.6
v 1.4 3.3 -0.4
v 1.6 3.3 -0.4
v 1.4 3.3 -0.8
v 1.6 3.3 -0.8
v 1.4 3.3 -1
v 1.6 3.3 -1
v 1.4 3.3 -1.1
v 1.4 3.3 -1.5
v 1.4 3.3 -2.5
v 1.6 3.3 -2.5
v 2.4 3.6 -0.8
v 2.5 3.6 -0.8
v 2.4 3.6 -1
v 2.5 3.6 -1
v 2.3 3.7 -0.8
v 2.4 3.7 -0.8
v 2.3 3.7 -1
v 2.4 3.7 -1
v 0.2 3.8 -0.8
v 1.4 3.8 -0.8
v 1.6 3.8 -0.8
v 2.3 3.8 -0.8
v 0.2 3.8 -1
v 0.9 3.8 -1
v 1.3 3.8 -1
v 1.4 3.8 -1
v 1.6 3.8 -1
v 2.3 3.8 -1
v 1.4 4.1 0
v 1.6 4.1 0
v 1.4 4.1 -0.1
v 1.6 4.1 -0.1
v 1.4 4.2 -0.1
v 1.6 4.2 -0.1
v 1.4 4.2 -0.2
v 1.6 4.2 -0.2
v 1.4 4.3 -0.2
v 1.6 4.3 -0.2
v 0.9 4.3 -1
v 1.3 4.3 -1
v 0.8 4.3 -1.1
v 0.9 4.3 -1.1
v 1.3 4.3 -1.1
v 1.4 4.3 -1.1
v 0.8 4.3 -1.5
v 0.9 4.3 -1.5
v 1.3 4.3 -1.5
v 1.4 4.3 -1.5
v 0.9 4.3 -1.6
v 1.3 4.3 -1.6
v 1.4 4.3 -2.3
v 1.6 4.3 -2.3
v 0.9 4.4 -1.1
v 1.3 4.4 -1.1
v 1 4.4 -1.2
v 1.2 4.4 -1.2
v 1 4.4 -1.4
v 1.2 4.4 -1.4
v 0.9 4.4 -1.5
v 1.3 4.4 -1.5
v 1 4.5 -1.2
v 1.2 4.5 -1.2
v 1 4.5 -1.4
v 1.2 4.5 -1.4

# faces
f 3/2/1 2/2/1 1/2/1
f 4/2/1 2/2/1 3/2/1
f 7/2/1 6/2/1 5/2/1
f 8/2/1 6/2/1 7/2/1
f 13/2/1 10/2/1 9/2/1
f 14/2/1 10/2/1 13/2/1
f 15/2/1 10/2/1 14/2/1
f 16/2/1 10/2/1 15/2/1
f 17/2/1 12/2/1 11/2/1
f 18/2/1 12/2/1 17/2/1
f 19/2/1 17/2/1 16/2/1
f 20/2/1 17/2/1 19/2/1
f 23/2/1 22/2/1 21/2/1
f 24/2/1 22/2/1 23/2/1
f 29/2/1 28/2/1 27/2/1
f 31/2/1 30/2/1 29/2/1
f 33/2/1 31/2/1 29/2/1
f 33/2/1 32/2/1 31/2/1
f 34/2/1 32/2/1 33/2/1
f 35/2/1 29/2/1 27/2/1
f 35/2/1 33/2/1 29/2/1
f 36/2/1 33/2/1 35/2/1
f 37/2/1 26/2/1 25/2/1
f 38/2/1 26/2/1 37/2/1
f 39/2/1 26/2/1 38/2/1
f 40/2/1 26/2/1 39/2/1
f 41/2/1 35/2/1 27/2/1
f 42/2/1 35/2/1 41/2/1
f 50/2/1 44/2/1 43/2/1
f 50/2/1 45/2/1 44/2/1
f 50/2/1 46/2/1 45/2/1
f 52/2/1 50/2/1 49/2/1
f 53/2/1 52/2/1 51/2/1
f 54/2/1 50/2/1 52/2/1
f 54/2/1 52/2/1 53/2/1
f 55/2/1 50/2/1 54/2/1
f 56/2/1 46/2/1 50/2/1
f 56/2/1 50/2/1 55/2/1
f 57/2/1 46/2/1 56/2/1
f 58/2/1 46/2/1 57/2/1
f 59/2/1 48/2/1 47/2/1
f 60/2/1 48/2/1 59/2/1
f 61/2/2 62/2/2 63/2/2
f 63/2/2 62/2/2 64/2/2
f 65/2/2 66/2/2 69/2/2
f 69/2/2 66/2/2 70/2/2
f 70/2/2 66/2/2 71/2/2
f 71/2/2 66/2/2 72/2/2
f 67/2/2 68/2/2 73/2/2
f 73/2/2 68/2/2 74/2/2
f 72/2/2 73/2/2 75/2/2
f 75/2/2 73/2/2 76/2/2
f 77/2/2 78/2/2 79/2/2
f 79/2/2 78/2/2 80/2/2
f 81/2/2 82/2/2 83/2/2
f 83/2/2 82/2/2 84/2/2
f 85/2/2 86/2/2 87/2/2
f 87/2/2 86/2/2 88/2/2
f 88/2/2 86/2/2 89/2/2
f 89/2/2 86/2/2 90/2/2
f 90/2/2 86/2/2 91/2/2
f 91/2/2 86/2/2 92/2/2
f 92/2/2 86/2/2 93/2/2
f 93/2/2 86/2/2 94/2/2
f 94/2/2 86/2/2 95/2/2
f 95/2/2 86/2/2 96/2/2
f 96/2/2 86/2/2 97/2/2
f 97/2/2 86/2/2 98/2/2
f 98/2/2 86/2/2 99/2/2
f 99/2/2 86/2/2 100/2/2
f 100/2/2 86/2/2 101/2/2
f 101/2/2 86/2/2 102/2/2
f 102/2/2 86/2/2 103/2/2
f 85/2/2 87/2/2 105/2/2
f 87/3/2 88/3/2 105/3/2
f 88/1/2 89/1/2 106/1/2
f 105/3/2 88/3/2 106/3/2
f 89/3/2 90/3/2 107/3/2
f 106/1/2 89/1/2 107/1/2
f 90/1/2 91/1/2 108/1/2
f 107/3/2 90/3/2 108/3/2
f 91/3/2 92/3/2 109/3/2
f 108/1/2 91/1/2 109/1/2
f 92/1/2 93/1/2 110/1/2
f 109/3/2 92/3/2 110/3/2
f 94/1/2 95/1/2 111/1/2
f 111/1/2 95/1/2 112/1/2
f 96/1/2 97/1/2 113/1/2
f 97/3/2 98/3/2 113/3/2
f 98/1/2 99/1/2 114/1/2
f 113/3/2 98/3/2 114/3/2
f 99/3/2 100/3/2 115/3/2
f 114/1/2 99/1/2 115/1/2
f 100/1/2 101/1/2 116/1/2
f 115/3/2 100/3/2 116/3/2
f 102/1/2 103/1/2 117/1/2
f 101/3/2 102/3/2 117/3/2
f 117/1/2 103/1/2 118/1/2
f 103/2/2 104/2/2 119/2/2
f 105/1/2 106/1/2 121/1/2
f 106/3/2 107/3/2 121/3/2
f 107/1/2 108/1/2 122/1/2
f 121/3/2 107/3/2 122/3/2
f 108/1/2 109/1/2 122/1/2
f 109/1/2 110/1/2 122/1/2
f 122/1/2 110/1/2 123/1/2
f 123/1/2 110/1/2 124/1/2
f 110/1/2 93/1/2 125/1/2
f 124/1/2 110/1/2 125/1/2
f 93/3/2 94/3/2 126/3/2
f 125/1/2 93/1/2 126/1/2
f 94/1/2 111/1/2 127/1/2
f 126/3/2 94/3/2 127/3/2
f 111/3/2 112/3/2 128/3/2
f 127/1/2 111/1/2 128/1/2
f 112/1/2 95/1/2 129/1/2
f 128/3/2 112/3/2 129/3/2
f 96/1/2 113/1/2 130/1/2
f 113/1/2 114/1/2 130/1/2
f 114/3/2 115/3/2 131/3/2
f 130/1/2 114/1/2 131/1/2
f 115/1/2 116/1/2 132/1/2
f 131/3/2 115/3/2 132/3/2
f 116/1/2 101/1/2 133/1/2
f 132/1/2 116/1/2 133/1/2
f 117/3/2 118/3/2 134/3/2
f 133/1/2 101/1/2 134/1/2
f 101/3/2 117/3/2 134/3/2
f 118/1/2 103/1/2 135/1/2
f 134/3/2 118/3/2 135/3/2
f 119/2/2 120/2/2 136/2/2
f 135/1/2 103/1/2 136/1/2
f 103/2/2 119/2/2 136/2/2
f 136/2/2 120/2/2 137/2/2
f 137/2/2 120/2/2 138/2/2
f 85/2/2 105/2/2 139/2/2
f 121/1/2 122/1/2 139/1/2
f 105/1/2 121/1/2 139/1/2
f 122/3/2 123/3/2 140/3/2
f 139/1/2 122/1/2 140/1/2
f 123/1/2 124/1/2 141/1/2
f 140/3/2 123/3/2 141/3/2
f 124/3/2 125/3/2 142/3/2
f 141/1/2 124/1/2 142/1/2
f 126/1/2 127/1/2 143/1/2
f 142/3/2 125/3/2 143/3/2
f 125/1/2 126/1/2 143/1/2
f 127/3/2 128/3/2 144/3/2
f 143/1/2 127/1/2 144/1/2
f 128/1/2 129/1/2 145/1/2
f 144/3/2 128/3/2 145/3/2
f 95/3/2 96/3/2 146/3/2
f 145/1/2 129/1/2 146/1/2
f 129/1/2 95/1/2 146/1/2
f 96/1/2 130/1/2 147/1/2
f 146/3/2 96/3/2 147/3/2
f 130/3/2 131/3/2 148/3/2
f 147/1/2 130/1/2 148/1/2
f 131/1/2 132/1/2 149/1/2
f 148/3/2 131/3/2 149/3/2
f 132/3/2 133/3/2 150/3/2
f 149/1/2 132/1/2 150/1/2
f 133/1/2 134/1/2 151/1/2
f 150/3/2 133/3/2 151/3/2
f 134/1/2 135/1/2 151/1/2
f 135/3/2 136/3/2 152/3/2
f 151/1/2 135/1/2 152/1/2
f 136/2/2 137/2/2 153/2/2
f 152/3/2 136/3/2 153/3/2
f 153/2/2 137/2/2 154/2/2
f 149/2/2 150/2/2 155/2/2
f 147/2/2 148/2/2 155/2/2
f 152/2/2 153/2/2 155/2/2
f 145/2/2 146/2/2 155/2/2
f 143/2/2 144/2/2 155/2/2
f 85/2/2 139/2/2 155/2/2
f 141/2/2 142/2/2 155/2/2
f 142/2/2 143/2/2 155/2/2
f 144/2/2 145/2/2 155/2/2
f 139/2/2 140/2/2 155/2/2
f 140/2/2 141/2/2 155/2/2
f 148/2/2 149/2/2 155/2/2
f 150/2/2 151/2/2 155/2/2
f 151/2/2 152/2/2 155/2/2
f 146/2/2 147/2/2 155/2/2
f 155/2/2 153/2/2 156/2/2
f 156/2/2 153/2/2 157/2/2
f 157/2/2 153/2/2 158/2/2
f 159/2/2 160/2/2 164/2/2
f 161/2/2 162/2/2 164/2/2
f 160/2/2 161/2/2 164/2/2
f 164/2/2 162/2/2 165/2/2
f 165/2/2 162/2/2 166/2/2
f 166/2/2 162/2/2 167/2/2
f 167/2/2 162/2/2 168/2/2
f 168/2/2 162/2/2 169/2/2
f 169/2/2 162/2/2 170/2/2
f 170/2/2 162/2/2 171/2/2
f 171/2/2 162/2/2 172/2/2
f 172/2/2 162/2/2 173/2/2
f 173/2/2 162/2/2 174/2/2
f 174/2/2 162/2/2 175/2/2
f 175/2/2 162/2/2 176/2/2
f 176/2/2 162/2/2 177/2/2
f 177/2/2 162/2/2 178/2/2
f 163/2/2 164/2/2 180/2/2
f 164/2/2 165/2/2 180/2/2
f 165/1/2 166/1/2 181/1/2
f 166/3/2 167/3/2 181/3/2
f 167/1/2 168/1/2 182/1/2
f 181/3/2 167/3/2 182/3/2
f 182/1/2 168/1/2 183/1/2
f 183/1/2 168/1/2 184/1/2
f 168/3/2 169/3/2 185/3/2
f 184/1/2 168/1/2 185/1/2
f 169/1/2 170/1/2 186/1/2
f 185/3/2 169/3/2 186/3/2
f 170/3/2 171/3/2 187/3/2
f 171/1/2 172/1/2 188/1/2
f 187/3/2 171/3/2 188/3/2
f 188/1/2 172/1/2 189/1/2
f 172/3/2 173/3/2 190/3/2
f 189/1/2 172/1/2 190/1/2
f 173/1/2 174/1/2 191/1/2
f 190/3/2 173/3/2 191/3/2
f 179/2/2 180/2/2 192/2/2
f 180/2/2 165/2/2 193/2/2
f 192/2/2 180/2/2 193/2/2
f 181/1/2 182/1/2 194/1/2
f 182/3/2 183/3/2 194/3/2
f 183/1/2 184/1/2 195/1/2
f 194/3/2 183/3/2 195/3/2
f 184/3/2 185/3/2 196/3/2
f 195/1/2 184/1/2 196/1/2
f 185/1/2 186/1/2 197/1/2
f 196/3/2 185/3/2 197/3/2
f 186/1/2 170/1/2 198/1/2
f 197/1/2 186/1/2 198/1/2
f 170/3/2 187/3/2 198/3/2
f 187/1/2 188/1/2 199/1/2
f 198/3/2 187/3/2 199/3/2
f 188/3/2 189/3/2 200/3/2
f 199/1/2 188/1/2 200/1/2
f 190/1/2 191/1/2 201/1/2
f 200/3/2 189/3/2 201/3/2
f 189/1/2 190/1/2 201/1/2
f 201/1/2 191/1/2 202/1/2
f 191/1/2 174/1/2 203/1/2
f 202/1/2 191/1/2 203/1/2
f 174/3/2 175/3/2 204/3/2
f 175/1/2 176/1/2 204/1/2
f 176/3/2 177/3/2 205/3/2
f 204/1/2 176/1/2 205/1/2
f 193/2/2 165/2/2 206/2/2
f 206/2/2 165/2/2 207/2/2
f 165/1/2 181/1/2 208/1/2
f 207/2/2 165/2/2 208/2/2
f 181/1/2 194/1/2 208/1/2
f 194/1/2 195/1/2 208/1/2
f 195/3/2 196/3/2 209/3/2
f 208/1/2 195/1/2 209/1/2
f 196/1/2 197/1/2 210/1/2
f 209/3/2 196/3/2 210/3/2
f 198/1/2 199/1/2 210/1/2
f 197/1/2 198/1/2 210/1/2
f 199/3/2 200/3/2 211/3/2
f 210/1/2 199/1/2 211/1/2
f 201/1/2 202/1/2 212/1/2
f 211/3/2 200/3/2 212/3/2
f 200/1/2 201/1/2 212/1/2
f 202/3/2 203/3/2 213/3/2
f 212/1/2 202/1/2 213/1/2
f 203/1/2 174/1/2 214/1/2
f 213/3/2 203/3/2 214/3/2
f 204/3/2 205/3/2 215/3/2
f 214/1/2 174/1/2 215/1/2
f 174/3/2 204/3/2 215/3/2
f 177/1/2 178/1/2 216/1/2
f 215/3/2 205/3/2 216/3/2
f 205/3/2 177/3/2 216/3/2
f 178/2/2 162/2/2 217/2/2
f 216/1/2 178/1/2 217/1/2
f 215/2/2 216/2/2 218/2/2
f 214/2/2 215/2/2 218/2/2
f 216/2/2 217/2/2 218/2/2
f 211/2/2 212/2/2 218/2/2
f 212/2/2 213/2/2 218/2/2
f 213/2/2 214/2/2 218/2/2
f 207/2/2 208/2/2 218/2/2
f 209/2/2 210/2/2 218/2/2
f 208/2/2 209/2/2 218/2/2
f 210/2/2 211/2/2 218/2/2
f 217/2/2 162/2/2 219/2/2
f 218/2/2 217/2/2 219/2/2
f 220/2/2 221/2/2 222/2/2
f 222/2/2 221/2/2 223/2/2
f 224/2/2 225/2/2 226/2/2
f 226/2/2 225/2/2 227/2/2
f 228/2/2 229/2/2 230/2/2
f 230/2/2 229/2/2 231/2/2
f 232/2/2 233/2/2 234/2/2
f 234/2/2 233/2/2 235/2/2
f 236/2/2 237/2/2 238/2/2
f 238/2/2 237/2/2 239/2/2
f 242/2/3 241/2/3 240/2/3
f 243/2/3 241/2/3 242/2/3
f 248/2/3 245/2/3 244/2/3
f 249/2/3 245/2/3 248/2/3
f 250/2/3 247/2/3 246/2/3
f 251/2/3 247/2/3 250/2/3
f 256/2/3 253/2/3 252/2/3
f 257/2/3 253/2/3 256/2/3
f 258/2/3 255/2/3 254/2/3
f 259/2/3 255/2/3 258/2/3
f 262/2/3 261/2/3 260/2/3
f 263/2/3 261/2/3 262/2/3
f 266/2/3 265/2/3 264/2/3
f 267/2/3 265/2/3 266/2/3
f 268/2/3 266/2/3 264/2/3
f 268/1/3 267/1/3 266/1/3
f 269/1/3 267/1/3 268/1/3
f 270/1/3 267/1/3 269/1/3
f 271/2/3 265/2/3 267/2/3
f 271/1/3 267/1/3 270/1/3
f 272/2/3 268/2/3 264/2/3
f 272/3/3 269/3/3 268/3/3
f 273/1/3 270/1/3 269/1/3
f 273/3/3 269/3/3 272/3/3
f 274/3/3 271/3/3 270/3/3
f 274/1/3 270/1/3 273/1/3
f 275/2/3 265/2/3 271/2/3
f 275/3/3 271/3/3 274/3/3
f 276/2/3 272/2/3 264/2/3
f 276/1/3 273/1/3 272/1/3
f 277/3/3 274/3/3 273/3/3
f 277/1/3 273/1/3 276/1/3
f 278/1/3 275/1/3 274/1/3
f 278/3/3 274/3/3 277/3/3
f 279/2/3 276/2/3 264/2/3
f 279/3/3 277/3/3 276/3/3
f 280/1/3 278/1/3 277/1/3
f 280/3/3 277/3/3 279/3/3
f 281/1/3 280/1/3 279/1/3
f 281/1/3 278/1/3 280/1/3
f 282/1/3 275/1/3 278/1/3
f 282/1/3 278/1/3 281/1/3
f 283/1/3 281/1/3 279/1/3
f 283/2/3 279/2/3 264/2/3
f 284/3/3 282/3/3 281/3/3
f 284/1/3 281/1/3 283/1/3
f 285/1/3 275/1/3 282/1/3
f 285/3/3 282/3/3 284/3/3
f 286/2/3 265/2/3 275/2/3
f 286/1/3 275/1/3 285/1/3
f 287/1/3 285/1/3 284/1/3
f 287/3/3 284/3/3 283/3/3
f 288/3/3 286/3/3 285/3/3
f 288/1/3 285/1/3 287/1/3
f 289/2/3 265/2/3 286/2/3
f 289/3/3 286/3/3 288/3/3
f 290/3/3 288/3/3 287/3/3
f 290/3/3 287/3/3 283/3/3
f 290/2/3 283/2/3 264/2/3
f 291/1/3 289/1/3 288/1/3
f 291/3/3 288/3/3 290/3/3
f 292/2/3 290/2/3 264/2/3
f 292/1/3 291/1/3 290/1/3
f 293/1/3 291/1/3 292/1/3
f 294/2/3 292/2/3 264/2/3
f 295/3/3 293/3/3 292/3/3
f 295/2/3 292/2/3 294/2/3
f 296/1/3 291/1/3 293/1/3
f 296/3/3 293/3/3 295/3/3
f 297/2/3 265/2/3 289/2/3
f 297/1/3 291/1/3 296/1/3
f 297/1/3 289/1/3 291/1/3
f 298/2/3 265/2/3 297/2/3
f 299/1/3 296/1/3 295/1/3
f 299/2/3 295/2/3 294/2/3
f 300/3/3 297/3/3 296/3/3
f 300/1/3 296/1/3 299/1/3
f 301/3/3 297/3/3 300/3/3
f 302/2/3 298/2/3 297/2/3
f 302/3/3 297/3/3 301/3/3
f 303/2/3 299/2/3 294/2/3
f 304/3/3 301/3/3 300/3/3
f 304/2/3 299/2/3 303/2/3
f 304/3/3 300/3/3 299/3/3
f 305/1/3 302/1/3 301/1/3
f 305/3/3 301/3/3 304/3/3
f 306/2/3 298/2/3 302/2/3
f 307/1/3 305/1/3 304/1/3
f 308/1/3 302/1/3 305/1/3
f 308/1/3 305/1/3 307/1/3
f 309/1/3 307/1/3 304/1/3
f 309/3/3 308/3/3 307/3/3
f 310/1/3 302/1/3 308/1/3
f 310/3/3 308/3/3 309/3/3
f 311/2/3 306/2/3 302/2/3
f 311/1/3 302/1/3 310/1/3
f 312/1/3 309/1/3 304/1/3
f 312/2/3 304/2/3 303/2/3
f 312/1/3 310/1/3 309/1/3
f 313/1/3 310/1/3 312/1/3
f 314/3/3 311/3/3 310/3/3
f 314/1/3 310/1/3 313/1/3
f 315/2/3 306/2/3 311/2/3
f 315/3/3 311/3/3 314/3/3
f 316/3/3 313/3/3 312/3/3
f 316/2/3 312/2/3 303/2/3
f 317/1/3 314/1/3 313/1/3
f 317/3/3 313/3/3 316/3/3
f 317/1/3 315/1/3 314/1/3
f 318/2/3 306/2/3 315/2/3
f 318/1/3 315/1/3 317/1/3
f 319/2/3 316/2/3 303/2/3
f 319/2/3 317/2/3 316/2/3
f 319/2/3 318/2/3 317/2/3
f 320/2/3 318/2/3 319/2/3
f 321/2/3 306/2/3 318/2/3
f 321/2/3 318/2/3 320/2/3
f 322/2/3 306/2/3 321/2/3
f 323/2/3 321/2/3 320/2/3
f 324/2/3 321/2/3 323/2/3
f 325/2/3 321/2/3 324/2/3
f 326/2/3 321/2/3 325/2/3
f 327/2/3 325/2/3 324/2/3
f 328/2/3 325/2/3 327/2/3
f 333/2/3 330/2/3 329/2/3
f 334/2/3 330/2/3 333/2/3
f 335/2/3 332/2/3 331/2/3
f 336/2/3 332/2/3 335/2/3
f 339/2/3 338/2/3 337/2/3
f 340/2/3 338/2/3 339/2/3
f 343/2/3 341/2/3 340/2/3
f 344/2/3 341/2/3 343/2/3
f 345/2/3 343/2/3 342/2/3
f 346/2/3 343/2/3 345/2/3
f 347/2/3 343/2/3 346/2/3
f 348/2/3 343/2/3 347/2/3
f 349/2/3 343/2/3 348/2/3
f 352/2/3 351/2/3 350/2/3
f 353/2/3 351/2/3 352/2/3
f 354/2/4 355/2/4 356/2/4
f 356/2/4 355/2/4 357/2/4
f 358/2/4 359/2/4 360/2/4
f 360/2/4 359/2/4 361/2/4
f 360/2/4 361/2/4 362/2/4
f 362/2/4 361/2/4 363/2/4
f 362/2/4 363/2/4 364/2/4
f 364/2/4 363/2/4 365/2/4
f 365/2/4 363/2/4 366/2/4
f 366/2/4 363/2/4 367/2/4
f 365/2/4 366/2/4 368/2/4
f 368/2/4 366/2/4 369/2/4
f 369/2/4 366/2/4 370/2/4
f 370/2/4 366/2/4 371/2/4
f 369/2/4 370/2/4 372/2/4
f 372/2/4 370/2/4 373/2/4
f 374/2/4 375/2/4 376/2/4
f 376/2/4 375/2/4 377/2/4
f 378/2/4 379/2/4 380/2/4
f 380/2/4 379/2/4 381/2/4
f 381/2/4 382/2/4 384/2/4
f 384/2/4 382/2/4 385/2/4
f 383/2/4 384/2/4 386/2/4
f 386/2/4 384/2/4 387/2/4
f 387/2/4 384/2/4 388/2/4
f 388/2/4 384/2/4 389/2/4
f 389/2/4 384/2/4 390/2/4
f 391/2/4 392/2/4 393/2/4
f 393/2/4 392/2/4 394/2/4
f 395/2/4 396/2/4 397/2/4
f 397/2/4 396/2/4 398/2/4
f 399/2/4 400/2/4 403/2/4
f 403/2/4 400/2/4 404/2/4
f 401/2/4 402/2/4 405/2/4
f 405/2/4 402/2/4 406/2/4
f 407/2/4 408/2/4 411/2/4
f 411/2/4 408/2/4 412/2/4
f 409/2/4 410/2/4 413/2/4
f 413/2/4 410/2/4 414/2/4
f 415/2/4 416/2/4 417/2/4
f 417/2/4 416/2/4 418/2/4
f 422/2/5 420/2/5 419/2/5
f 423/2/5 420/2/5 422/2/5
f 425/2/5 422/2/5 421/2/5
f 425/2/5 424/2/5 423/2/5
f 425/2/5 423/2/5 422/2/5
f 426/2/5 424/2/5 425/2/5
f 427/2/5 424/2/5 426/2/5
f 428/2/5 424/2/5 427/2/5
f 429/2/5 427/2/5 426/2/5
f 430/2/5 427/2/5 429/2/5
f 433/2/5 432/2/5 431/2/5
f 434/2/5 432/2/5 433/2/5
f 435/2/5 432/2/5 434/2/5
f 436/2/5 432/2/5 435/2/5
f 439/2/5 438/2/5 437/2/5
f 440/2/5 438/2/5 439/2/5
f 443/2/5 442/2/5 441/2/5
f 444/2/5 442/2/5 443/2/5
f 449/2/5 446/2/5 445/2/5
f 450/2/5 446/2/5 449/2/5
f 451/2/5 446/2/5 450/2/5
f 452/2/5 446/2/5 451/2/5
f 453/2/5 448/2/5 447/2/5
f 454/2/5 448/2/5 453/2/5
f 457/2/5 456/2/5 455/2/5
f 458/2/5 456/2/5 457/2/5
f 461/2/5 460/2/5 459/2/5
f 462/2/5 460/2/5 461/2/5
f 465/2/5 464/2/5 463/2/5
f 466/2/5 464/2/5 465/2/5
f 469/2/5 468/2/5 467/2/5
f 470/2/5 468/2/5 469/2/5
f 471/2/5 468/2/5 470/2/5
f 472/2/5 468/2/5 471/2/5
f 475/2/5 474/2/5 473/2/5
f 476/2/5 474/2/5 475/2/5
f 479/2/5 478/2/5 477/2/5
f 480/2/5 478/2/5 479/2/5
f 481/2/6 482/2/6 483/2/6
f 483/2/6 482/2/6 484/2/6
f 485/2/6 486/2/6 487/2/6
f 487/2/6 486/2/6 488/2/6
f 489/2/6 490/2/6 491/2/6
f 491/2/6 490/2/6 492/2/6
f 493/2/6 494/2/6 495/2/6
f 495/2/6 494/2/6 496/2/6
f 496/2/6 494/2/6 497/2/6
f 497/2/6 494/2/6 498/2/6
f 499/2/6 500/2/6 501/2/6
f 501/2/6 500/2/6 502/2/6
f 503/2/6 504/2/6 505/2/6
f 505/2/6 504/2/6 506/2/6
f 507/2/6 508/2/6 511/2/6
f 511/2/6 508/2/6 512/2/6
f 512/2/6 508/2/6 513/2/6
f 513/2/6 508/2/6 514/2/6
f 509/2/6 510/2/6 515/2/6
f 515/2/6 510/2/6 516/2/6
f 517/2/6 518/2/6 519/2/6
f 519/2/6 518/2/6 520/2/6
f 521/2/6 522/2/6 523/2/6
f 523/2/6 522/2/6 524/2/6
f 527/2/6 528/2/6 530/2/6
f 530/2/6 528/2/6 531/2/6
f 525/2/6 526/2/6 532/2/6
f 529/2/6 530/2/6 533/2/6
f 533/2/6 530/2/6 534/2/6
f 531/2/6 532/2/6 535/2/6
f 532/2/6 526/2/6 536/2/6
f 535/2/6 532/2/6 536/2/6
f 534/2/6 535/2/6 537/2/6
f 537/2/6 535/2/6 538/2/6
f 536/2/6 526/2/6 539/2/6
f 539/2/6 526/2/6 540/2/6
f 541/2/6 542/2/6 543/2/6
f 543/2/6 542/2/6 544/2/6
f 541/2/6 543/2/6 545/2/6
f 544/2/6 542/2/6 546/2/6
f 541/2/6 545/2/6 547/2/6
f 545/2/6 546/2/6 547/2/6
f 546/2/6 542/2/6 548/2/6
f 547/2/6 546/2/6 548/2/6
f 549/2/6 550/2/6 551/2/6
f 551/2/6 550/2/6 552/2/6
